<?xml version="1.0" encoding="utf-8"?>
<!-- Generator: Adobe Illustrator 16.0.0, SVG Export Plug-In . SVG Version: 6.00 Build 0)  -->
<!DOCTYPE svg PUBLIC "-//W3C//DTD SVG 1.1//EN" "http://www.w3.org/Graphics/SVG/1.1/DTD/svg11.dtd">
<svg version="1.1" id="Layer_1" xmlns="http://www.w3.org/2000/svg" xmlns:xlink="http://www.w3.org/1999/xlink" x="0px" y="0px"
	 width="120px" height="59.362px" viewBox="0 0 120 59.362" enable-background="new 0 0 120 59.362" xml:space="preserve">
<path fill="#C8158C" d="M106.334,8.944c1.226,0,1.846-0.888,1.846-1.798c0-0.91-0.761-1.497-1.846-1.497
	c-3.466,0-5.736,1.955-6.823,4.286V7.992c0-1.361-1.066-1.926-1.913-1.926c-0.651,0-1.548,0.465-1.548,1.456v22.26
	c0,1.257,0.647,1.622,1.569,1.622H98c0.919,0,1.564-0.364,1.564-1.622v-9.793C99.564,13.606,100.977,8.944,106.334,8.944"/>
<path fill="#C8158C" d="M52.348,8.63c4.656,0,7.723,2.578,7.723,5.575c0,1.856-1.477,2.541-4.776,2.541H43.038
	C43.796,11.98,47.475,8.63,52.348,8.63 M62.879,25.186c-0.698-0.509-1.692-0.375-2.22,0.301c-1.519,1.847-3.798,3.302-7.989,3.302
	c-5.464,0-9.525-3.847-9.79-9.132h13.972c3.82,0,6.919-1.415,6.919-5.398c0-5.985-5.837-8.61-11.423-8.61
	c-7.469,0-12.993,5.599-12.993,13.193c0,7.643,5.472,12.981,13.315,12.981c5.672,0,8.719-2.132,10.494-4.447
	C63.69,26.701,63.582,25.69,62.879,25.186"/>
<path fill="#C8158C" d="M79.906,8.63c4.659,0,7.725,2.578,7.725,5.575c0,1.856-1.471,2.541-4.777,2.541H70.599
	C71.354,11.98,75.036,8.63,79.906,8.63 M90.44,25.186c-0.698-0.509-1.693-0.375-2.222,0.301c-1.518,1.847-3.795,3.302-7.986,3.302
	c-5.469,0-9.526-3.847-9.796-9.132h13.976c3.817,0,6.924-1.415,6.924-5.398c0-5.985-5.844-8.61-11.43-8.61
	c-7.468,0-12.986,5.599-12.986,13.193c0,7.643,5.468,12.981,13.313,12.981c5.67,0,8.717-2.132,10.495-4.447
	C91.25,26.701,91.14,25.69,90.44,25.186"/>
<path fill="#C8158C" d="M20.093,18.896l-0.434,0.345l-1.783,1.412l1.158-1.914c-0.573-0.529-0.893-1.163-0.882-1.817
	c0.005-0.715,0.404-1.409,1.122-1.947l0.385-0.29l0.387,0.29c0.714,0.538,1.117,1.232,1.122,1.947
	C21.181,17.643,20.796,18.343,20.093,18.896 M31.69,2.493c-0.883,0-1.995,0.314-3.279,1.278l-8.752,6.573l-1.829,1.381l1.039-1.976
	L10.91,3.771C9.626,2.807,8.514,2.493,7.631,2.493c-2.802,0-3.919,1.85-3.919,4.683v22.607c0,1.095,0.466,1.62,1.546,1.62h0.541
	c1.029,0,1.463-0.524,1.463-1.62V7.176c0-1.004,0.766-1.229,1.472-0.697l8.052,6.048c-1.368,1.158-2.166,2.719-2.182,4.354
	c-0.021,1.709,0.802,3.367,2.262,4.568l-3.139,2.481c-0.758,0.596-0.869,1.676-0.248,2.411c0.617,0.732,1.735,0.841,2.489,0.243
	l3.691-2.913l3.692,2.913c0.758,0.598,1.87,0.489,2.494-0.243c0.616-0.735,0.504-1.815-0.254-2.411l-3.136-2.481
	c1.459-1.201,2.285-2.859,2.26-4.568c-0.023-1.635-0.819-3.196-2.179-4.354l8.051-6.048c0.706-0.532,1.47-0.307,1.47,0.697v22.607
	c0,1.095,0.433,1.62,1.46,1.62h0.541c1.085,0,1.543-0.524,1.543-1.62V7.176C35.601,4.343,34.494,2.493,31.69,2.493"/>
<path fill="#C8158C" d="M4.326,55.843v-12.91c0-0.367,0.268-0.647,0.648-0.647h8.25c0.334,0,0.513,0.151,0.513,0.433v0.108
	c0,0.304-0.179,0.435-0.513,0.435H5.421v5.813h5.813c0.334,0,0.513,0.153,0.513,0.456v0.065c0,0.305-0.179,0.432-0.513,0.432H5.421
	v5.816c0,0.346-0.157,0.498-0.469,0.498H4.795C4.482,56.341,4.326,56.188,4.326,55.843"/>
<path fill="#C8158C" d="M23.719,51.194c0-2.508-1.81-4.454-4.313-4.454c-2.505,0-4.34,1.902-4.34,4.412
	c0,2.507,1.835,4.433,4.34,4.433C21.886,55.585,23.719,53.702,23.719,51.194 M13.998,51.152c0-3.051,2.235-5.321,5.409-5.321
	c3.13,0,5.385,2.293,5.385,5.363c0,3.028-2.255,5.299-5.385,5.299C16.232,56.493,13.998,54.2,13.998,51.152"/>
<path fill="#C8158C" d="M26.685,51.928v-5.446c0-0.391,0.199-0.498,0.471-0.498h0.134c0.268,0,0.468,0.107,0.468,0.498v5.383
	c0,2.25,1.14,3.655,3.219,3.655c1.767,0,3.085-0.95,3.732-2.379v-6.659c0-0.391,0.204-0.498,0.47-0.498h0.134
	c0.269,0,0.472,0.107,0.472,0.498v9.751c0,0.022-0.177,0.108-0.383,0.108c-0.356,0-0.669-0.195-0.669-1.037V54.37
	c-0.716,1.215-2.034,2.123-3.823,2.123C28.116,56.493,26.685,54.676,26.685,51.928"/>
<path fill="#C8158C" d="M38.44,55.843v-9.752c0-0.022,0.159-0.106,0.36-0.106c0.378,0,0.692,0.194,0.692,1.038v0.928
	c0.693-1.209,2.032-2.118,3.798-2.118c2.821,0,4.25,1.815,4.25,4.563v5.448c0,0.39-0.203,0.498-0.472,0.498h-0.132
	c-0.27,0-0.47-0.108-0.47-0.498v-5.385c0-2.248-1.142-3.654-3.221-3.654c-1.765,0-3.083,0.953-3.732,2.381v6.658
	c0,0.39-0.202,0.498-0.468,0.498H38.91C38.641,56.341,38.44,56.232,38.44,55.843"/>
<path fill="#C8158C" d="M58.678,51.909v-2.402c-0.648-1.664-1.988-2.766-4.048-2.766c-2.389,0-4.088,1.815-4.088,4.39
	c0,2.593,1.699,4.454,4.067,4.454C56.868,55.585,58.678,53.938,58.678,51.909 M49.469,51.153c0-3.138,2.17-5.322,5.096-5.322
	c2.057,0,3.509,1.039,4.113,2.207v-6.315c0-0.021,0.157-0.106,0.36-0.106c0.379,0,0.713,0.193,0.713,1.014v13.213
	c0,0.365-0.202,0.498-0.49,0.498h-0.112c-0.293,0-0.471-0.133-0.471-0.498V54.2c-0.782,1.361-2.146,2.293-4.179,2.293
	C51.639,56.493,49.469,54.35,49.469,51.153"/>
<path fill="#C8158C" d="M69.598,52.166v-1.013h-0.291c-4.605,0.084-6.485,0.798-6.485,2.527c0,1.211,1.028,1.946,2.663,1.946
	C67.786,55.627,69.598,54.112,69.598,52.166 M61.729,53.681c0-2.313,2.322-3.264,7.643-3.353h0.226V49.81
	c0-1.924-1.209-3.026-3.242-3.026c-1.837,0-3.02,0.843-3.6,1.946c-0.023,0-0.604-0.066-0.604-0.605c0-0.217,0.224-0.65,0.604-0.996
	c0.67-0.646,1.856-1.296,3.666-1.296c2.635,0,4.225,1.493,4.225,3.957v6.444c0,0.021-0.178,0.106-0.38,0.106
	c-0.358,0-0.669-0.194-0.669-1.037v-1.059c-0.694,1.317-2.259,2.228-4.203,2.228C63.135,56.472,61.729,55.389,61.729,53.681"/>
<path fill="#C8158C" d="M73.542,53.314v-6.337h-1.298c-0.403,0-0.515-0.152-0.515-0.411v-0.11c0-0.256,0.111-0.408,0.515-0.408
	h1.298v-1.989c0-0.39,0.201-0.519,0.468-0.519h0.135c0.268,0,0.449,0.129,0.449,0.519v1.989h3.06c0.402,0,0.538,0.152,0.538,0.408
	v0.11c0,0.259-0.136,0.411-0.538,0.411h-3.06v6.229c0,1.686,0.512,2.4,1.765,2.4c0.781,0,1.341-0.347,1.722-0.889
	c0.043-0.02,0.356,0.111,0.356,0.521c0,0.173-0.093,0.41-0.356,0.647c-0.337,0.347-0.918,0.607-1.768,0.607
	C74.436,56.493,73.542,55.476,73.542,53.314"/>
<path fill="#C8158C" d="M79.942,55.844V46.48c0-0.39,0.178-0.497,0.467-0.497h0.114c0.288,0,0.492,0.107,0.492,0.497v9.363
	c0,0.389-0.204,0.497-0.492,0.497h-0.114C80.12,56.341,79.942,56.232,79.942,55.844 M79.74,42.565c0-0.474,0.247-0.712,0.761-0.712
	c0.49,0,0.715,0.238,0.715,0.712c0,0.477-0.243,0.715-0.761,0.715C79.987,43.28,79.74,43.042,79.74,42.565"/>
<path fill="#C8158C" d="M92.699,51.194c0-2.508-1.811-4.454-4.314-4.454c-2.505,0-4.337,1.902-4.337,4.412
	c0,2.507,1.832,4.433,4.337,4.433C90.866,55.585,92.699,53.702,92.699,51.194 M82.975,51.152c0-3.051,2.235-5.321,5.41-5.321
	c3.129,0,5.386,2.293,5.386,5.363c0,3.028-2.257,5.299-5.386,5.299C85.21,56.493,82.975,54.2,82.975,51.152"/>
<path fill="#C8158C" d="M95.784,55.843v-9.752c0-0.022,0.159-0.106,0.357-0.106c0.382,0,0.694,0.194,0.694,1.038v0.928
	c0.689-1.209,2.033-2.118,3.801-2.118c2.816,0,4.248,1.815,4.248,4.563v5.448c0,0.39-0.203,0.498-0.471,0.498h-0.136
	c-0.265,0-0.47-0.108-0.47-0.498v-5.385c0-2.248-1.138-3.654-3.22-3.654c-1.764,0-3.081,0.953-3.73,2.381v6.658
	c0,0.39-0.201,0.498-0.47,0.498h-0.135C95.985,56.341,95.784,56.232,95.784,55.843"/>
<text transform="matrix(1 0 0 1 112.0068 6.7856)" fill="#C8158C" font-family="'ArialMT'" font-size="4.3352">R</text>
<circle fill="none" stroke="#C8158C" stroke-width="0.361" stroke-miterlimit="10" cx="113.572" cy="5.208" r="2.534"/>
</svg>
