<?xml version="1.0" encoding="utf-8"?>
<!-- Generator: Adobe Illustrator 16.0.0, SVG Export Plug-In . SVG Version: 6.00 Build 0)  -->
<!DOCTYPE svg PUBLIC "-//W3C//DTD SVG 1.1//EN" "http://www.w3.org/Graphics/SVG/1.1/DTD/svg11.dtd">
<svg version="1.1" id="Layer_1" xmlns="http://www.w3.org/2000/svg" xmlns:xlink="http://www.w3.org/1999/xlink" x="0px" y="0px"
	 width="50px" height="50px" viewBox="0 0 50 50" enable-background="new 0 0 50 50" xml:space="preserve">
<g>
	<path fill="#3FC2CD" d="M11.713,34.499c-0.366,0-0.663-0.296-0.663-0.662V27.36c0-2.523-2.054-4.579-4.58-4.579
		s-4.58,2.055-4.58,4.579v6.477c0,0.366-0.296,0.662-0.663,0.662c-0.366,0-0.663-0.296-0.663-0.662V27.36
		c0-3.255,2.649-5.904,5.905-5.904s5.905,2.649,5.905,5.904v6.477C12.376,34.203,12.079,34.499,11.713,34.499"/>
	<path fill="#3FC2CD" d="M6.471,14.461c-1.929,0-3.498,1.569-3.498,3.498s1.569,3.498,3.498,3.498s3.498-1.569,3.498-3.498
		S8.4,14.461,6.471,14.461 M6.471,22.782c-2.659,0-4.823-2.164-4.823-4.823c0-2.659,2.164-4.823,4.823-4.823
		c2.66,0,4.824,2.164,4.824,4.823C11.295,20.618,9.131,22.782,6.471,22.782"/>
	<path fill="#3FC2CD" d="M48.771,34.499c-0.366,0-0.662-0.296-0.662-0.662V27.36c0-2.523-2.055-4.579-4.579-4.579
		c-2.526,0-4.579,2.055-4.579,4.579v6.477c0,0.366-0.298,0.662-0.664,0.662c-0.364,0-0.662-0.296-0.662-0.662V27.36
		c0-3.255,2.649-5.904,5.905-5.904s5.904,2.649,5.904,5.904v6.477C49.434,34.203,49.137,34.499,48.771,34.499"/>
	<path fill="#3FC2CD" d="M43.529,14.461c-1.929,0-3.499,1.569-3.499,3.498s1.57,3.498,3.499,3.498c1.928,0,3.497-1.569,3.497-3.498
		S45.457,14.461,43.529,14.461 M43.529,22.782c-2.66,0-4.824-2.164-4.824-4.823c0-2.659,2.164-4.823,4.824-4.823
		c2.658,0,4.822,2.164,4.822,4.823C48.352,20.618,46.188,22.782,43.529,22.782"/>
	<path fill="#3FC2CD" d="M33.604,39.95c-0.366,0-0.662-0.297-0.662-0.663v-10.47c0-4.308-3.505-7.813-7.813-7.813
		s-7.813,3.504-7.813,7.813v10.47c0,0.366-0.296,0.663-0.663,0.663c-0.366,0-0.663-0.297-0.663-0.663v-10.47
		c0-5.04,4.1-9.138,9.139-9.138c5.04,0,9.138,4.099,9.138,9.138v10.47C34.268,39.653,33.971,39.95,33.604,39.95"/>
	<path fill="#3FC2CD" d="M25.129,11.376c-2.289,0-4.152,1.862-4.152,4.152s1.863,4.151,4.152,4.151c2.29,0,4.151-1.862,4.151-4.151
		S27.419,11.376,25.129,11.376 M25.129,21.005c-3.02,0-5.478-2.457-5.478-5.477c0-3.02,2.458-5.477,5.478-5.477
		c3.019,0,5.476,2.457,5.476,5.477C30.605,18.548,28.148,21.005,25.129,21.005"/>
	<path fill="#3FC2CD" d="M17.951,14.776c-0.938,0-1.702,0.763-1.702,1.701c0,0.938,0.764,1.702,1.702,1.702s1.702-0.764,1.702-1.702
		C19.652,15.54,18.889,14.776,17.951,14.776 M17.951,19.505c-1.67,0-3.027-1.357-3.027-3.027c0-1.669,1.357-3.027,3.027-3.027
		c1.669,0,3.027,1.358,3.027,3.027C20.978,18.147,19.62,19.505,17.951,19.505"/>
</g>
</svg>
