<?xml version="1.0" encoding="utf-8"?>
<!-- Generator: Adobe Illustrator 16.0.0, SVG Export Plug-In . SVG Version: 6.00 Build 0)  -->
<!DOCTYPE svg PUBLIC "-//W3C//DTD SVG 1.1//EN" "http://www.w3.org/Graphics/SVG/1.1/DTD/svg11.dtd">
<svg version="1.1" id="Layer_1" xmlns="http://www.w3.org/2000/svg" xmlns:xlink="http://www.w3.org/1999/xlink" x="0px" y="0px"
	 width="50px" height="50px" viewBox="0 0 50 50" enable-background="new 0 0 50 50" xml:space="preserve">
<g>
	<path fill="#40C2CE" d="M20.594,8.837c-2.415,0-4.379,1.964-4.379,4.378c0,2.415,1.964,4.378,4.379,4.378h0.388
		c0.162,0,0.315,0.072,0.42,0.194s0.151,0.286,0.126,0.445l-0.373,2.376l2.509-2.828c0.104-0.118,0.255-0.187,0.413-0.187h6.425
		c2.416,0,4.38-1.963,4.38-4.378c0-2.414-1.964-4.378-4.38-4.378H20.594z M20.317,22.941c-0.08,0-0.16-0.018-0.235-0.052
		c-0.223-0.105-0.349-0.345-0.312-0.587l0.566-3.607c-2.905-0.135-5.228-2.541-5.228-5.479c0-3.024,2.461-5.485,5.486-5.485h9.909
		c3.026,0,5.486,2.46,5.486,5.485s-2.46,5.486-5.486,5.486h-6.176l-3.596,4.054C20.624,22.876,20.472,22.941,20.317,22.941"/>
	<path fill="#40C2CE" d="M12.239,19.619c-2.038,0-3.697,1.659-3.697,3.697c0,2.039,1.659,3.698,3.697,3.698
		c2.039,0,3.698-1.659,3.698-3.698C15.937,21.278,14.277,19.619,12.239,19.619 M12.239,28.12c-2.649,0-4.804-2.155-4.804-4.804
		c0-2.648,2.155-4.804,4.804-4.804c2.648,0,4.804,2.155,4.804,4.804C17.043,25.965,14.887,28.12,12.239,28.12"/>
	<path fill="#40C2CE" d="M2.356,41.164h16.532v-5.778c0-2.981-2.427-5.408-5.409-5.408H7.765c-2.982,0-5.408,2.427-5.408,5.408
		V41.164z M19.441,42.27H1.803c-0.306,0-0.553-0.247-0.553-0.554v-6.33c0-3.591,2.922-6.514,6.515-6.514h5.715
		c3.592,0,6.515,2.923,6.515,6.514v6.33C19.995,42.022,19.747,42.27,19.441,42.27"/>
	<path fill="#40C2CE" d="M10.622,36.332h-0.001c-0.191,0-0.369-0.1-0.469-0.263l-3.78-6.146c-0.16-0.261-0.079-0.601,0.181-0.762
		c0.26-0.159,0.602-0.079,0.761,0.182l3.311,5.383l3.338-5.384c0.161-0.26,0.502-0.34,0.762-0.18
		c0.259,0.161,0.339,0.502,0.178,0.763l-3.811,6.146C10.992,36.233,10.814,36.332,10.622,36.332"/>
	<path fill="#40C2CE" d="M16.538,36.77h-2.582c-0.305,0-0.552-0.248-0.552-0.553c0-0.306,0.247-0.554,0.552-0.554h2.582
		c0.306,0,0.553,0.248,0.553,0.554C17.091,36.521,16.843,36.77,16.538,36.77"/>
	<path fill="#40C2CE" d="M10.752,42.27c-0.305,0-0.553-0.247-0.553-0.554V35.57c0-0.305,0.248-0.553,0.553-0.553
		c0.306,0,0.553,0.248,0.553,0.553v6.146C11.305,42.022,11.058,42.27,10.752,42.27"/>
	<path fill="#40C2CE" d="M37.13,19.619c-2.039,0-3.698,1.659-3.698,3.697c0,2.039,1.659,3.698,3.698,3.698s3.698-1.659,3.698-3.698
		C40.828,21.278,39.169,19.619,37.13,19.619 M37.13,28.12c-2.648,0-4.804-2.155-4.804-4.804c0-2.648,2.155-4.804,4.804-4.804
		s4.803,2.155,4.803,4.804C41.933,25.965,39.778,28.12,37.13,28.12"/>
	<path fill="#40C2CE" d="M31.111,41.164h16.533v-5.778c0-2.981-2.427-5.408-5.408-5.408H36.52c-2.981,0-5.408,2.427-5.408,5.408
		V41.164z M48.197,42.27H30.56c-0.307,0-0.554-0.247-0.554-0.554v-6.33c0-3.591,2.922-6.514,6.514-6.514h5.717
		c3.592,0,6.514,2.923,6.514,6.514v6.33C48.75,42.022,48.503,42.27,48.197,42.27"/>
	<path fill="#40C2CE" d="M39.225,34.188c-0.176,0-0.342-0.085-0.446-0.227l-3.084-4.21c-0.182-0.246-0.128-0.593,0.118-0.772
		c0.245-0.181,0.593-0.127,0.773,0.118l2.633,3.594l2.568-3.589c0.178-0.247,0.522-0.306,0.77-0.128
		c0.25,0.179,0.307,0.523,0.129,0.772l-3.011,4.21c-0.104,0.144-0.271,0.229-0.447,0.231H39.225z"/>
</g>
</svg>
