<?xml version="1.0" encoding="utf-8"?>
<!-- Generator: Adobe Illustrator 16.0.0, SVG Export Plug-In . SVG Version: 6.00 Build 0)  -->
<!DOCTYPE svg PUBLIC "-//W3C//DTD SVG 1.1//EN" "http://www.w3.org/Graphics/SVG/1.1/DTD/svg11.dtd">
<svg version="1.1" id="Layer_1" xmlns="http://www.w3.org/2000/svg" xmlns:xlink="http://www.w3.org/1999/xlink" x="0px" y="0px"
	 width="50px" height="50px" viewBox="0 0 50 50" enable-background="new 0 0 50 50" xml:space="preserve">
<g>
	<path fill="#C9148D" d="M19.917,23.26c-4.017,0-7.286,3.267-7.286,7.285c0,4.018,3.269,7.284,7.286,7.284
		c4.017,0,7.286-3.267,7.286-7.284C27.203,26.526,23.934,23.26,19.917,23.26 M19.917,39.164c-4.753,0-8.62-3.867-8.62-8.619
		c0-4.755,3.866-8.62,8.62-8.62c4.753,0,8.621,3.865,8.621,8.62C28.538,35.297,24.67,39.164,19.917,39.164"/>
	<path fill="#C9148D" d="M30.081,23.26c-4.018,0-7.285,3.267-7.285,7.285c0,4.018,3.267,7.284,7.285,7.284
		c4.019,0,7.285-3.267,7.285-7.284C37.366,26.526,34.1,23.26,30.081,23.26 M30.081,39.164c-4.751,0-8.619-3.867-8.619-8.619
		c0-4.755,3.868-8.62,8.619-8.62c4.752,0,8.62,3.865,8.62,8.62C38.701,35.297,34.833,39.164,30.081,39.164"/>
	<path fill="#C9148D" d="M17.113,22.346c-0.199,0-0.396-0.09-0.528-0.258l-1.667-2.161c-0.146-0.19-0.18-0.44-0.09-0.661
		c0.09-0.219,0.289-0.375,0.525-0.409l5.039-0.702c0.221-0.032,0.442,0.048,0.591,0.216c0.148,0.165,0.202,0.396,0.146,0.61
		l-0.644,2.487c-0.092,0.357-0.455,0.574-0.814,0.479c-0.354-0.095-0.568-0.457-0.476-0.814l0.395-1.52l-2.914,0.406l0.965,1.252
		c0.226,0.292,0.17,0.712-0.121,0.936C17.4,22.302,17.256,22.346,17.113,22.346"/>
	<path fill="#C9148D" d="M24.999,10.899c-11.709,0-21.235,8.094-21.235,18.046c0,9.951,9.526,18.048,21.235,18.048
		c11.711,0,21.235-8.097,21.235-18.048C46.234,18.994,36.71,10.899,24.999,10.899 M24.999,48.325
		c-12.443,0-22.567-8.692-22.567-19.38c0-10.686,10.124-19.38,22.567-19.38c12.445,0,22.569,8.695,22.569,19.38
		C47.568,39.633,37.444,48.325,24.999,48.325"/>
	<path fill="#C9148D" d="M18.289,11.405c-0.229,0-0.453-0.117-0.576-0.331l-4.895-8.396c-0.122-0.207-0.122-0.462-0.002-0.668
		s0.339-0.335,0.579-0.335h11.782c0.368,0,0.666,0.299,0.666,0.668c0,0.367-0.298,0.666-0.666,0.666H14.554l4.31,7.392
		c0.185,0.321,0.078,0.727-0.241,0.914C18.519,11.376,18.403,11.405,18.289,11.405"/>
	<path fill="#C9148D" d="M31.71,11.405c-0.114,0-0.229-0.029-0.334-0.09c-0.32-0.187-0.427-0.593-0.241-0.914l4.31-7.392H24.824
		c-0.37,0-0.668-0.299-0.668-0.666c0-0.37,0.299-0.668,0.668-0.668h11.782c0.238,0,0.459,0.129,0.578,0.335s0.118,0.462-0.002,0.668
		l-4.896,8.396C32.163,11.288,31.938,11.405,31.71,11.405"/>
	<path fill="#C9148D" d="M21.498,11.138c-0.276,0-0.534-0.173-0.63-0.447l-1.581-4.555c-0.12-0.348,0.065-0.729,0.413-0.851
		c0.348-0.119,0.727,0.066,0.849,0.414l1.579,4.555c0.12,0.348-0.063,0.727-0.411,0.848C21.643,11.125,21.569,11.138,21.498,11.138"
		/>
</g>
</svg>
