<?xml version="1.0" encoding="utf-8"?>
<!-- Generator: Adobe Illustrator 16.0.0, SVG Export Plug-In . SVG Version: 6.00 Build 0)  -->
<!DOCTYPE svg PUBLIC "-//W3C//DTD SVG 1.1//EN" "http://www.w3.org/Graphics/SVG/1.1/DTD/svg11.dtd">
<svg version="1.1" id="Layer_1" xmlns="http://www.w3.org/2000/svg" xmlns:xlink="http://www.w3.org/1999/xlink" x="0px" y="0px"
	 width="50px" height="50px" viewBox="0 0 50 50" enable-background="new 0 0 50 50" xml:space="preserve">
<g>
	<path fill="#C9148D" d="M8.157,12.722c-1.323,0-2.4,1.078-2.4,2.402v3.781c0,1.324,1.077,2.402,2.4,2.402h3.783
		c1.323,0,2.401-1.078,2.401-2.402v-3.781c0-1.324-1.078-2.402-2.401-2.402H8.157z M11.939,22.81H8.157
		c-2.153,0-3.904-1.751-3.904-3.905v-3.781c0-2.154,1.751-3.905,3.904-3.905h3.783c2.153,0,3.904,1.751,3.904,3.905v3.781
		C15.843,21.059,14.092,22.81,11.939,22.81"/>
	<path fill="#C9148D" d="M19.82,14.615c-0.415,0-0.751-0.338-0.751-0.751V8.714c0-1.324-1.077-2.402-2.401-2.402H4.961
		c-1.323,0-2.401,1.078-2.401,2.402v0.105c0,1.322,1.078,2.4,2.401,2.4h6.664c0.414,0,0.751,0.335,0.751,0.751
		s-0.338,0.751-0.751,0.751H4.961c-2.152,0-3.904-1.751-3.904-3.903V8.714c0-2.154,1.752-3.905,3.904-3.905h11.707
		c2.153,0,3.904,1.751,3.904,3.905v5.149C20.572,14.277,20.235,14.615,19.82,14.615"/>
	<path fill="#C9148D" d="M17.456,33.325c-1.718,0-3.115-1.396-3.115-3.114v-13.04c0-0.414,0.336-0.751,0.751-0.751
		c0.415,0,0.751,0.338,0.751,0.751v13.04c0,0.889,0.725,1.611,1.613,1.611c0.89,0,1.612-0.723,1.612-1.611V13.388
		c0-0.414,0.337-0.751,0.752-0.751c0.416,0,0.751,0.337,0.751,0.751v16.823C20.572,31.929,19.175,33.325,17.456,33.325"/>
	<path fill="#C9148D" d="M10.064,27.085h4.276V22.81h-4.276V27.085z M15.092,28.588h-5.78c-0.415,0-0.751-0.335-0.751-0.751v-5.778
		c0-0.416,0.336-0.751,0.751-0.751h5.78c0.415,0,0.751,0.335,0.751,0.751v5.778C15.843,28.253,15.507,28.588,15.092,28.588"/>
	<path fill="#C9148D" d="M22.447,45.19H8.683c-0.416,0-0.751-0.335-0.751-0.751v-9.021c-2.242-0.065-4.045-1.908-4.045-4.166
		c0-2.296,1.869-4.167,4.165-4.167h7.042c0.415,0,0.751,0.338,0.751,0.752c0,0.416-0.336,0.751-0.751,0.751H8.051
		c-1.468,0-2.663,1.196-2.663,2.664c0,1.47,1.195,2.663,2.663,2.663h0.632c0.415,0,0.751,0.338,0.751,0.752v9.021h12.262v-15.1
		H19.82c-0.415,0-0.751-0.335-0.751-0.751c0-0.414,0.336-0.752,0.751-0.752h2.626c0.415,0,0.751,0.338,0.751,0.752v16.603
		C23.198,44.855,22.862,45.19,22.447,45.19"/>
	<path fill="#C9148D" d="M35.056,6.313c-1.322,0-2.4,1.078-2.4,2.4v8.039c0,1.035,0.843,1.875,1.875,1.875
		c1.035,0,1.876-0.841,1.876-1.875v-4.78c0-0.416,0.337-0.751,0.753-0.751h7.88c1.324,0,2.4-1.076,2.4-2.4V8.712
		c0-1.322-1.076-2.4-2.4-2.4H35.056z M34.53,20.131c-1.861,0-3.378-1.516-3.378-3.38V8.712c0-2.152,1.751-3.903,3.903-3.903h9.983
		c2.154,0,3.903,1.751,3.903,3.903v0.107c0,2.151-1.749,3.903-3.903,3.903h-7.128v4.029C37.911,18.615,36.395,20.131,34.53,20.131"
		/>
	<path fill="#C9148D" d="M42.902,25.489h-2.766c-2.056,0-3.73-1.672-3.73-3.729v-6.813c0-0.414,0.337-0.751,0.751-0.751
		c0.416,0,0.751,0.338,0.751,0.751v6.813c0,1.226,1,2.226,2.229,2.226h2.766c1.227,0,2.226-1,2.226-2.226v-9.333
		c0-0.416,0.336-0.753,0.752-0.753s0.751,0.337,0.751,0.753v9.333C46.631,23.816,44.959,25.489,42.902,25.489"/>
	<path fill="#C9148D" d="M39.995,31.557c-1.979,0-3.589-1.609-3.589-3.587v-5.438c0-0.416,0.337-0.751,0.751-0.751
		c0.416,0,0.754,0.335,0.754,0.751v5.438c0,1.149,0.934,2.084,2.084,2.084c1.149,0,2.084-0.935,2.084-2.084v-2.917
		c0-0.416,0.338-0.751,0.754-0.751s0.751,0.335,0.751,0.751v2.917C43.584,29.947,41.975,31.557,39.995,31.557"/>
	<path fill="#C9148D" d="M44.721,45.19H30.748c-2.152,0-3.903-1.749-3.903-3.903v-13.45c0-0.414,0.338-0.752,0.751-0.752h9.562
		c0.416,0,0.754,0.338,0.754,0.752c0,0.416-0.338,0.751-0.754,0.751h-8.81v12.699c0,1.324,1.078,2.4,2.4,2.4h13.973
		c1.324,0,2.402-1.076,2.402-2.4V30.99c0-1.324-1.078-2.402-2.402-2.402h-1.888c-0.416,0-0.752-0.335-0.752-0.751
		c0-0.414,0.336-0.752,0.752-0.752h1.888c2.154,0,3.905,1.751,3.905,3.905v10.297C48.626,43.441,46.875,45.19,44.721,45.19"/>
</g>
</svg>
