<?xml version="1.0" encoding="utf-8"?>
<!-- Generator: Adobe Illustrator 16.0.0, SVG Export Plug-In . SVG Version: 6.00 Build 0)  -->
<!DOCTYPE svg PUBLIC "-//W3C//DTD SVG 1.1//EN" "http://www.w3.org/Graphics/SVG/1.1/DTD/svg11.dtd">
<svg version="1.1" id="Layer_1" xmlns="http://www.w3.org/2000/svg" xmlns:xlink="http://www.w3.org/1999/xlink" x="0px" y="0px"
	 width="50px" height="50px" viewBox="0 0 50 50" enable-background="new 0 0 50 50" xml:space="preserve">
<g>
	<path fill="#3FC2CD" d="M7.283,15.903c-0.486,0-0.882-0.395-0.882-0.881s0.394-0.88,0.88-0.882
		c0.063-0.001,3.666-0.071,6.535-3.039C17.3,7.496,20.378,5.216,24.957,4.99c0.479-0.025,0.901,0.35,0.924,0.837
		c0.025,0.486-0.35,0.899-0.837,0.924c-4.015,0.199-6.691,2.195-9.96,5.576C11.666,15.863,7.46,15.903,7.283,15.903"/>
	<path fill="#3FC2CD" d="M5.001,35.64h11.595l2.25-3.749H3.015L5.001,35.64z M17.096,37.404H4.472c-0.327,0-0.626-0.181-0.78-0.47
		L0.77,31.422c-0.145-0.273-0.136-0.603,0.024-0.867c0.16-0.267,0.447-0.428,0.756-0.428h18.854c0.318,0,0.612,0.171,0.768,0.447
		c0.157,0.277,0.153,0.616-0.011,0.889l-3.307,5.513C17.693,37.241,17.405,37.404,17.096,37.404"/>
	<path fill="#3FC2CD" d="M1.549,31.891c-0.141,0-0.283-0.033-0.415-0.104c-0.431-0.229-0.592-0.765-0.363-1.193l8.545-15.987
		c0.147-0.276,0.429-0.454,0.742-0.466c0.307-0.007,0.607,0.14,0.777,0.403L21.145,30.53c0.264,0.409,0.146,0.956-0.263,1.219
		c-0.408,0.266-0.956,0.147-1.219-0.262l-9.498-14.728L2.327,31.424C2.168,31.723,1.864,31.891,1.549,31.891"/>
	<path fill="#3FC2CD" d="M42.717,15.903c-0.177,0-4.382-0.04-7.801-3.576c-3.268-3.381-5.945-5.376-9.959-5.576
		c-0.486-0.025-0.862-0.438-0.837-0.924c0.024-0.487,0.46-0.864,0.924-0.837c4.578,0.227,7.657,2.506,11.141,6.111
		c2.881,2.98,6.499,3.039,6.535,3.039c0.485,0.003,0.88,0.399,0.879,0.884C43.597,15.51,43.202,15.903,42.717,15.903"/>
	<path fill="#3FC2CD" d="M33.403,35.64h11.595l1.987-3.749h-15.83L33.403,35.64z M45.529,37.404H32.904
		c-0.311,0-0.597-0.163-0.756-0.429l-3.309-5.513c-0.163-0.272-0.168-0.611-0.012-0.889c0.158-0.276,0.45-0.447,0.769-0.447h18.855
		c0.308,0,0.594,0.161,0.754,0.428c0.159,0.265,0.169,0.594,0.023,0.867l-2.922,5.513C46.155,37.224,45.855,37.404,45.529,37.404"/>
	<path fill="#3FC2CD" d="M48.452,31.891c-0.316,0-0.621-0.168-0.779-0.467l-7.839-14.665l-9.496,14.728
		c-0.265,0.408-0.81,0.528-1.219,0.262c-0.409-0.263-0.528-0.81-0.264-1.219l10.309-15.987c0.17-0.263,0.468-0.407,0.777-0.403
		c0.313,0.012,0.595,0.189,0.742,0.466l8.544,15.987c0.229,0.429,0.068,0.964-0.361,1.193
		C48.734,31.857,48.592,31.891,48.452,31.891"/>
	<path fill="#3FC2CD" d="M25,46.886c-0.486,0-0.882-0.396-0.882-0.881V3.445c0-0.487,0.396-0.882,0.882-0.882
		s0.882,0.395,0.882,0.882v42.56C25.882,46.49,25.486,46.886,25,46.886"/>
	<path fill="#3FC2CD" d="M38.266,47.438H11.804c-0.487,0-0.882-0.396-0.882-0.882c0-0.487,0.395-0.883,0.882-0.883h26.462
		c0.487,0,0.882,0.396,0.882,0.883C39.147,47.042,38.753,47.438,38.266,47.438"/>
</g>
</svg>
