<?xml version="1.0" encoding="utf-8"?>
<!-- Generator: Adobe Illustrator 16.0.0, SVG Export Plug-In . SVG Version: 6.00 Build 0)  -->
<!DOCTYPE svg PUBLIC "-//W3C//DTD SVG 1.1//EN" "http://www.w3.org/Graphics/SVG/1.1/DTD/svg11.dtd">
<svg version="1.1" id="Layer_1" xmlns="http://www.w3.org/2000/svg" xmlns:xlink="http://www.w3.org/1999/xlink" x="0px" y="0px"
	 width="50px" height="50px" viewBox="0 0 50 50" enable-background="new 0 0 50 50" xml:space="preserve">
<g>
	<path fill="#C9148D" d="M3.88,24.287h23.227l0.7-3.352l-2.168-0.837c-0.21-0.082-0.371-0.258-0.431-0.477
		c-0.06-0.218-0.012-0.453,0.128-0.63l5.012-6.386L25,8.642L3.88,24.287z M29.771,24.287h16.35l-11.048-8.184l-2.806,2.804
		l1.313,2.123c0.207,0.334,0.108,0.771-0.224,0.981L29.771,24.287z M48.282,25.715H1.718c-0.307,0-0.579-0.198-0.676-0.491
		c-0.096-0.293,0.006-0.614,0.254-0.797L24.576,7.18c0.253-0.187,0.597-0.187,0.847,0l6.363,4.712
		c0.155,0.115,0.256,0.289,0.282,0.479c0.025,0.192-0.027,0.384-0.146,0.536l-4.87,6.205l1.833,0.707
		c0.326,0.127,0.514,0.472,0.441,0.814l-0.54,2.588l3.212-2.039l-1.241-2.004c-0.174-0.282-0.132-0.647,0.103-0.881l3.642-3.638
		c0.249-0.25,0.642-0.278,0.926-0.07l13.277,9.838c0.247,0.183,0.351,0.504,0.254,0.797C48.861,25.517,48.589,25.715,48.282,25.715"
		/>
	<path fill="#C9148D" d="M8.104,41.532h33.793V25.715H8.104V41.532z M42.609,42.96H7.391c-0.393,0-0.712-0.318-0.712-0.715V25
		c0-0.394,0.319-0.714,0.712-0.714h35.218c0.393,0,0.711,0.32,0.711,0.714v17.245C43.32,42.642,43.002,42.96,42.609,42.96"/>
	<path fill="#C9148D" d="M14.601,41.532h6.64V29.127h-6.64V41.532z M21.954,42.96h-8.065c-0.394,0-0.713-0.318-0.713-0.715v-13.83
		c0-0.396,0.319-0.715,0.713-0.715h8.065c0.394,0,0.712,0.319,0.712,0.715v13.83C22.666,42.642,22.348,42.96,21.954,42.96"/>
	<path fill="#C9148D" d="M28.938,33.988h4.849v-4.861h-4.849V33.988z M34.499,35.416h-6.273c-0.393,0-0.712-0.321-0.712-0.715
		v-6.288c0-0.393,0.319-0.713,0.712-0.713h6.273c0.394,0,0.713,0.32,0.713,0.713v6.288C35.212,35.095,34.893,35.416,34.499,35.416"
		/>
	<path fill="#C9148D" d="M48.026,42.96H1.974c-0.394,0-0.713-0.318-0.713-0.715c0-0.392,0.319-0.713,0.713-0.713h46.052
		c0.394,0,0.712,0.321,0.712,0.713C48.738,42.642,48.42,42.96,48.026,42.96"/>
</g>
</svg>
