<?xml version="1.0" encoding="utf-8"?>
<!-- Generator: Adobe Illustrator 16.0.0, SVG Export Plug-In . SVG Version: 6.00 Build 0)  -->
<!DOCTYPE svg PUBLIC "-//W3C//DTD SVG 1.1//EN" "http://www.w3.org/Graphics/SVG/1.1/DTD/svg11.dtd">
<svg version="1.1" id="Layer_1" xmlns="http://www.w3.org/2000/svg" xmlns:xlink="http://www.w3.org/1999/xlink" x="0px" y="0px"
	 width="50px" height="50px" viewBox="0 0 50 50" enable-background="new 0 0 50 50" xml:space="preserve">
<g>
	<path fill="#40C2CE" d="M13.841,22.08v0.354c0,0.822,0.668,1.491,1.49,1.491h0.8c0.822,0,1.49-0.669,1.49-1.491V22.08H13.841z
		 M16.132,25.401h-0.8c-1.636,0-2.967-1.331-2.967-2.967v-1.091c0-0.409,0.331-0.739,0.738-0.739h5.258
		c0.408,0,0.738,0.33,0.738,0.739v1.091C19.098,24.07,17.767,25.401,16.132,25.401"/>
	<path fill="#40C2CE" d="M18.359,22.08c-0.314,0-0.605-0.202-0.704-0.518l-1.924-6.144l-1.923,6.144
		c-0.122,0.39-0.537,0.604-0.925,0.483c-0.389-0.121-0.606-0.536-0.483-0.924l2.627-8.393c0.098-0.308,0.383-0.517,0.705-0.517
		c0.323,0,0.608,0.209,0.705,0.517l2.629,8.393c0.121,0.389-0.096,0.804-0.484,0.924C18.507,22.069,18.433,22.08,18.359,22.08"/>
	<path fill="#40C2CE" d="M31.986,22.08v0.354c0,0.822,0.668,1.491,1.49,1.491h0.8c0.822,0,1.49-0.669,1.49-1.491V22.08H31.986z
		 M34.276,25.401h-0.8c-1.636,0-2.967-1.331-2.967-2.967v-1.091c0-0.409,0.33-0.739,0.738-0.739h5.257
		c0.407,0,0.737,0.33,0.737,0.739v1.091C37.242,24.07,35.912,25.401,34.276,25.401"/>
	<path fill="#40C2CE" d="M36.504,22.08c-0.313,0-0.605-0.202-0.703-0.518l-1.924-6.144l-1.924,6.144
		c-0.123,0.39-0.537,0.604-0.926,0.483c-0.389-0.121-0.606-0.536-0.483-0.924l2.628-8.393c0.097-0.308,0.382-0.517,0.705-0.517
		c0.322,0,0.607,0.209,0.703,0.517l2.629,8.393c0.122,0.389-0.095,0.804-0.483,0.924C36.652,22.069,36.578,22.08,36.504,22.08"/>
	<path fill="#40C2CE" d="M36.782,12.766H13.218c-1.132,0-2.052-0.921-2.052-2.053c0-1.132,0.92-2.052,2.052-2.052h1.315
		c0.407,0,0.737,0.33,0.737,0.738c0,0.407-0.33,0.738-0.737,0.738h-1.315c-0.317,0-0.576,0.258-0.576,0.576
		c0,0.318,0.259,0.576,0.576,0.576h23.564c0.317,0,0.576-0.257,0.576-0.576c0-0.318-0.259-0.576-0.576-0.576h-1.176
		c-0.408,0-0.738-0.331-0.738-0.738c0-0.408,0.33-0.738,0.738-0.738h1.176c1.132,0,2.052,0.92,2.052,2.052
		C38.834,11.845,37.914,12.766,36.782,12.766"/>
	<path fill="#40C2CE" d="M25,30.011c-0.408,0-0.738-0.33-0.738-0.738V8.984c0-0.408,0.331-0.738,0.738-0.738
		c0.408,0,0.738,0.33,0.738,0.738v20.288C25.738,29.681,25.408,30.011,25,30.011"/>
	<path fill="#40C2CE" d="M20.236,31.671h9.654v-1.66h-9.654V31.671z M30.626,33.146H19.497c-0.408,0-0.738-0.33-0.738-0.736v-3.138
		c0-0.406,0.33-0.736,0.738-0.736h11.129c0.408,0,0.738,0.33,0.738,0.736v3.138C31.364,32.816,31.034,33.146,30.626,33.146"/>
	<path fill="#40C2CE" d="M35.36,33.146H15.131c-0.407,0-0.737-0.33-0.737-0.736c0-0.409,0.33-0.739,0.737-0.739H35.36
		c0.408,0,0.738,0.33,0.738,0.739C36.099,32.816,35.769,33.146,35.36,33.146"/>
	<path fill="#40C2CE" d="M7.877,3.174c-2.831,0-5.134,2.302-5.134,5.133V33.84c0,2.832,2.304,5.135,5.134,5.135h24.305
		c0.38,0,0.698,0.288,0.734,0.666c0.151,1.564,0.136,4.265-1.245,6.742c2.014-0.709,5.104-2.486,6.155-6.844
		c0.08-0.331,0.376-0.564,0.718-0.564h3.58c2.83,0,5.134-2.303,5.134-5.135V8.308c0-2.832-2.304-5.133-5.134-5.133H7.877z
		 M29.919,48.303c-0.275,0-0.531-0.155-0.658-0.405c-0.139-0.271-0.094-0.602,0.111-0.828c1.86-2.054,2.213-4.626,2.122-6.618H7.877
		c-3.645,0-6.61-2.966-6.61-6.611V8.308c0-3.644,2.965-6.61,6.61-6.61h34.247c3.645,0,6.608,2.966,6.608,6.61V33.84
		c0,3.646-2.964,6.611-6.608,6.611h-3.012c-2.045,7.038-9.045,7.84-9.118,7.849C29.97,48.303,29.944,48.303,29.919,48.303"/>
</g>
</svg>
