<?xml version="1.0" encoding="utf-8"?>
<!-- Generator: Adobe Illustrator 16.0.0, SVG Export Plug-In . SVG Version: 6.00 Build 0)  -->
<!DOCTYPE svg PUBLIC "-//W3C//DTD SVG 1.1//EN" "http://www.w3.org/Graphics/SVG/1.1/DTD/svg11.dtd">
<svg version="1.1" id="Layer_1" xmlns="http://www.w3.org/2000/svg" xmlns:xlink="http://www.w3.org/1999/xlink" x="0px" y="0px"
	 width="50px" height="50px" viewBox="0 0 50 50" enable-background="new 0 0 50 50" xml:space="preserve">
<g>
	<path fill="#C9148D" d="M20.946,34.813h-6.067c-1.009,0-1.83-0.813-1.83-1.814v-4.145c0-1.088,0.894-1.973,1.99-1.973h2.68
		c0.365,0,0.662,0.293,0.662,0.658c0,0.361-0.297,0.656-0.662,0.656h-2.68c-0.365,0-0.664,0.297-0.664,0.658v4.145
		c0,0.275,0.227,0.5,0.504,0.5h6.067c1.715,0,3.108-1.385,3.108-3.086v-5.748c0-1.701-1.394-3.086-3.108-3.086h-8.624
		c-0.615,0-1.223,0.203-1.712,0.572l-2.577,1.945c-0.292,0.219-0.708,0.162-0.93-0.127c-0.221-0.289-0.164-0.701,0.127-0.92
		l2.576-1.945c0.72-0.543,1.613-0.842,2.516-0.842h8.624c2.446,0,4.437,1.975,4.437,4.402v5.748
		C25.382,32.84,23.392,34.813,20.946,34.813"/>
	<path fill="#C9148D" d="M14.403,37.553h-2.934c-1.14,0-2.209-0.439-3.015-1.238L7.02,34.891c-0.259-0.256-0.259-0.674,0-0.932
		c0.259-0.256,0.679-0.256,0.938,0l1.435,1.426c0.554,0.549,1.292,0.852,2.076,0.852h2.934c0.862,0,1.677-0.373,2.235-1.021
		l1.275-1.486c0.237-0.277,0.655-0.311,0.935-0.074c0.278,0.236,0.312,0.652,0.073,0.928l-1.274,1.484
		C16.835,37.012,15.654,37.553,14.403,37.553"/>
	<path fill="#C9148D" d="M2.277,21.732c-0.277,0-0.504,0.225-0.504,0.5v13.158c0,0.275,0.227,0.498,0.504,0.498h4.046
		c0.278,0,0.504-0.223,0.504-0.498V22.232c0-0.275-0.226-0.5-0.504-0.5H2.277z M6.323,37.205H2.277
		c-1.008,0-1.829-0.814-1.829-1.814V22.232c0-1,0.821-1.814,1.829-1.814h4.046c1.009,0,1.829,0.814,1.829,1.814v13.158
		C8.152,36.391,7.332,37.205,6.323,37.205"/>
	<path fill="#C9148D" d="M34.559,37.592H28.49c-2.445,0-4.435-1.975-4.435-4.402v-5.748c0-2.428,1.99-4.4,4.435-4.4h8.625
		c0.902,0,1.797,0.299,2.516,0.842l2.574,1.941c0.291,0.219,0.348,0.633,0.125,0.922c-0.221,0.289-0.637,0.346-0.93,0.125
		l-2.572-1.941c-0.49-0.369-1.098-0.574-1.713-0.574H28.49c-1.715,0-3.11,1.385-3.11,3.086v5.748c0,1.703,1.395,3.086,3.11,3.086
		h6.068c0.277,0,0.504-0.225,0.504-0.498v-4.145c0-0.363-0.299-0.658-0.664-0.658h-2.68c-0.365,0-0.662-0.295-0.662-0.658
		s0.297-0.658,0.662-0.658h2.68c1.098,0,1.99,0.887,1.99,1.975v4.145C36.389,36.777,35.566,37.592,34.559,37.592"/>
	<path fill="#C9148D" d="M37.969,40.33h-2.936c-1.25,0-2.432-0.541-3.244-1.484l-1.273-1.486c-0.238-0.275-0.205-0.689,0.074-0.926
		c0.277-0.236,0.695-0.203,0.934,0.074l1.275,1.484c0.559,0.65,1.373,1.023,2.234,1.023h2.936c0.783,0,1.521-0.303,2.074-0.854
		l1.436-1.424c0.26-0.256,0.68-0.256,0.938,0c0.26,0.256,0.26,0.674,0,0.932l-1.434,1.422C40.178,39.891,39.105,40.33,37.969,40.33"
		/>
	<path fill="#C9148D" d="M41.947,38.826c-0.365,0-0.662-0.295-0.662-0.658V25.01c0-0.363,0.297-0.656,0.662-0.656
		c0.367,0,0.664,0.293,0.664,0.656v13.158C42.611,38.531,42.314,38.826,41.947,38.826"/>
	<path fill="#C9148D" d="M44.262,38.826c-0.365,0-0.662-0.295-0.662-0.658V25.01c0-0.363,0.297-0.656,0.662-0.656
		c0.367,0,0.664,0.293,0.664,0.656v13.158C44.926,38.531,44.629,38.826,44.262,38.826"/>
	<path fill="#C9148D" d="M46.576,38.826c-0.367,0-0.664-0.295-0.664-0.658V25.01c0-0.363,0.297-0.656,0.664-0.656
		c0.365,0,0.662,0.293,0.662,0.656v13.158C47.238,38.531,46.941,38.826,46.576,38.826"/>
	<path fill="#C9148D" d="M48.891,38.826c-0.367,0-0.664-0.295-0.664-0.658V25.01c0-0.363,0.297-0.656,0.664-0.656
		c0.365,0,0.662,0.293,0.662,0.656v13.158C49.553,38.531,49.256,38.826,48.891,38.826"/>
	<path fill="#C9148D" d="M33.471,22.002c-0.248,0-0.488-0.139-0.602-0.377c-0.154-0.326-0.014-0.719,0.316-0.875l0.813-0.381
		l-3.164-1.352c-0.176-0.076-0.311-0.225-0.367-0.404c-0.061-0.182-0.035-0.379,0.063-0.543l1.598-2.613l-3.156,0.723
		c-0.189,0.043-0.387,0.002-0.543-0.113c-0.156-0.113-0.252-0.289-0.268-0.482l-0.23-3.154l-2.059,2.459
		c-0.128,0.15-0.322,0.236-0.518,0.236c-0.199-0.002-0.387-0.094-0.512-0.248l-2.082-2.592l0.113,3.656
		c0.008,0.215-0.092,0.418-0.266,0.547c-0.172,0.129-0.397,0.166-0.602,0.1l-3.539-1.141l1.918,2.787
		c0.207,0.301,0.129,0.709-0.173,0.914c-0.303,0.205-0.716,0.129-0.922-0.172l-3.014-4.379c-0.16-0.232-0.153-0.541,0.017-0.766
		c0.17-0.227,0.467-0.318,0.735-0.232l4.491,1.449l-0.147-4.699c-0.008-0.283,0.167-0.541,0.435-0.639
		c0.269-0.098,0.569-0.014,0.748,0.207l2.816,3.508l2.59-3.094c0.174-0.205,0.455-0.287,0.713-0.205s0.439,0.311,0.459,0.578
		l0.295,4.02l3.932-0.898c0.26-0.059,0.531,0.041,0.686,0.256c0.156,0.213,0.17,0.5,0.029,0.727l-2.016,3.299l3.813,1.631
		c0.238,0.102,0.396,0.334,0.4,0.592c0.004,0.26-0.145,0.496-0.379,0.605l-2.141,1.004C33.66,21.982,33.564,22.002,33.471,22.002"/>
</g>
</svg>
