<?xml version="1.0" encoding="utf-8"?>
<!-- Generator: Adobe Illustrator 16.0.0, SVG Export Plug-In . SVG Version: 6.00 Build 0)  -->
<!DOCTYPE svg PUBLIC "-//W3C//DTD SVG 1.1//EN" "http://www.w3.org/Graphics/SVG/1.1/DTD/svg11.dtd">
<svg version="1.1" id="Layer_1" xmlns="http://www.w3.org/2000/svg" xmlns:xlink="http://www.w3.org/1999/xlink" x="0px" y="0px"
	 width="50px" height="50px" viewBox="0 0 50 50" enable-background="new 0 0 50 50" xml:space="preserve">
<g>
	<path fill="#40C2CE" d="M25.943,37.232H5.893c-2.195,0-3.981-1.851-3.981-4.125V11.346c0-2.274,1.786-4.124,3.981-4.124h28.266
		c2.195,0,3.981,1.85,3.981,4.124v13.514c0,0.377-0.295,0.682-0.658,0.682c-0.364,0-0.658-0.305-0.658-0.682V11.346
		c0-1.521-1.195-2.76-2.665-2.76H5.893c-1.47,0-2.665,1.238-2.665,2.76v21.762c0,1.522,1.195,2.761,2.665,2.761h20.051
		c0.363,0,0.658,0.305,0.658,0.682S26.307,37.232,25.943,37.232"/>
	<path fill="#40C2CE" d="M26.651,8.586c-0.362,0-0.658-0.305-0.658-0.682V3.697c0-0.732-0.575-1.327-1.282-1.327h-9.375
		c-0.705,0-1.281,0.595-1.281,1.327v4.207c0,0.376-0.294,0.682-0.657,0.682c-0.364,0-0.659-0.305-0.659-0.682V3.697
		c0-1.483,1.166-2.691,2.598-2.691h9.375c1.433,0,2.599,1.208,2.599,2.691v4.207C27.311,8.281,27.015,8.586,26.651,8.586"/>
	<path fill="#40C2CE" d="M18.502,29.517h3.896v-4.531c0-0.376,0.295-0.682,0.658-0.682h4.374v-4.036h-4.374
		c-0.362,0-0.658-0.305-0.658-0.682v-4.531h-3.896v4.531c0,0.376-0.295,0.682-0.659,0.682h-4.372v4.036h4.372
		c0.363,0,0.659,0.306,0.659,0.682V29.517z M23.055,30.88h-5.212c-0.364,0-0.658-0.306-0.658-0.682v-4.531h-4.372
		c-0.365,0-0.659-0.306-0.659-0.682v-5.4c0-0.377,0.294-0.682,0.659-0.682h4.372v-4.531c0-0.376,0.294-0.682,0.658-0.682h5.212
		c0.364,0,0.659,0.305,0.659,0.682v4.531h4.373c0.363,0,0.658,0.304,0.658,0.682v5.4c0,0.376-0.295,0.682-0.658,0.682h-4.373v4.531
		C23.714,30.574,23.419,30.88,23.055,30.88"/>
	<path fill="#40C2CE" d="M25.353,38.243l4.392,4.548L41.73,30.372l-4.39-4.548L25.353,38.243z M29.744,44.438L29.744,44.438
		c-0.175,0-0.343-0.072-0.467-0.2l-5.32-5.514c-0.256-0.266-0.256-0.697,0-0.964l12.918-13.384c0.257-0.266,0.674-0.266,0.93,0
		l5.321,5.514c0.258,0.267,0.258,0.698,0,0.965L30.209,44.238C30.086,44.366,29.919,44.438,29.744,44.438"/>
	<path fill="#40C2CE" d="M20.025,48.994c-0.168,0-0.337-0.067-0.465-0.2c-0.257-0.267-0.257-0.698,0-0.964l7.058-7.313
		c0.258-0.267,0.673-0.267,0.93,0c0.258,0.267,0.258,0.699,0,0.966l-7.057,7.312C20.362,48.927,20.193,48.994,20.025,48.994"/>
	<path fill="#40C2CE" d="M36.248,32.186c-0.168,0-0.336-0.066-0.465-0.2c-0.258-0.266-0.258-0.698,0-0.964l8.502-8.809
		c0.256-0.266,0.674-0.266,0.93,0c0.258,0.267,0.258,0.698,0,0.965l-8.501,8.808C36.585,32.119,36.417,32.186,36.248,32.186"/>
	<path fill="#40C2CE" d="M38.834,35.021c-0.169,0-0.337-0.067-0.466-0.201l-5.32-5.513c-0.258-0.266-0.258-0.697,0-0.964
		c0.257-0.267,0.673-0.267,0.931,0l5.321,5.513c0.256,0.266,0.256,0.698,0,0.964C39.171,34.953,39.003,35.021,38.834,35.021"/>
	<path fill="#40C2CE" d="M47.43,26.114c-0.169,0-0.337-0.066-0.466-0.201l-5.32-5.512c-0.258-0.266-0.258-0.698,0-0.965
		c0.257-0.267,0.674-0.267,0.931,0l5.321,5.513c0.257,0.267,0.257,0.699,0,0.964C47.767,26.048,47.599,26.114,47.43,26.114"/>
</g>
</svg>
