<?xml version="1.0" encoding="utf-8"?>
<!-- Generator: Adobe Illustrator 16.0.0, SVG Export Plug-In . SVG Version: 6.00 Build 0)  -->
<!DOCTYPE svg PUBLIC "-//W3C//DTD SVG 1.1//EN" "http://www.w3.org/Graphics/SVG/1.1/DTD/svg11.dtd">
<svg version="1.1" id="Layer_1" xmlns="http://www.w3.org/2000/svg" xmlns:xlink="http://www.w3.org/1999/xlink" x="0px" y="0px"
	 width="50px" height="50px" viewBox="0 0 50 50" enable-background="new 0 0 50 50" xml:space="preserve">
<g>
	<path fill="#C9148D" d="M25,3.027C12.934,3.027,3.118,12.883,3.118,25c0,12.115,9.815,21.976,21.882,21.976
		c12.066,0,21.88-9.86,21.88-21.976C46.881,12.883,37.066,3.027,25,3.027 M25,48.876c-13.11,0-23.776-10.71-23.776-23.876
		C1.225,11.835,11.891,1.124,25,1.124c13.108,0,23.775,10.711,23.775,23.876C48.775,38.166,38.108,48.876,25,48.876"/>
	<path fill="#C9148D" d="M15.779,16.794c-1.009,0-1.832,0.824-1.832,1.839s0.823,1.839,1.832,1.839c1.01,0,1.832-0.824,1.832-1.839
		S16.789,16.794,15.779,16.794 M15.779,22.375c-2.052,0-3.725-1.679-3.725-3.742c0-2.063,1.673-3.74,3.725-3.74
		c2.055,0,3.725,1.677,3.725,3.74C19.504,20.697,17.834,22.375,15.779,22.375"/>
	<path fill="#C9148D" d="M34.222,16.794c-1.011,0-1.832,0.824-1.832,1.839s0.821,1.839,1.832,1.839s1.832-0.824,1.832-1.839
		S35.232,16.794,34.222,16.794 M34.222,22.375c-2.055,0-3.727-1.679-3.727-3.742c0-2.063,1.672-3.74,3.727-3.74
		c2.052,0,3.724,1.677,3.724,3.74C37.945,20.697,36.273,22.375,34.222,22.375"/>
	<path fill="#C9148D" d="M35.27,36.288c-0.292,0-0.578-0.135-0.765-0.386c-2.218-3.028-5.77-4.832-9.504-4.832
		c-3.733,0-7.287,1.804-9.506,4.832c-0.309,0.42-0.902,0.512-1.322,0.2c-0.422-0.313-0.513-0.907-0.204-1.331
		c2.576-3.509,6.699-5.604,11.032-5.604c4.333,0,8.457,2.096,11.03,5.604c0.31,0.424,0.221,1.019-0.2,1.331
		C35.661,36.229,35.464,36.288,35.27,36.288"/>
</g>
</svg>
