<?xml version="1.0" encoding="utf-8"?>
<!-- Generator: Adobe Illustrator 16.0.0, SVG Export Plug-In . SVG Version: 6.00 Build 0)  -->
<!DOCTYPE svg PUBLIC "-//W3C//DTD SVG 1.1//EN" "http://www.w3.org/Graphics/SVG/1.1/DTD/svg11.dtd">
<svg version="1.1" id="Layer_1" xmlns="http://www.w3.org/2000/svg" xmlns:xlink="http://www.w3.org/1999/xlink" x="0px" y="0px"
	 width="50px" height="50px" viewBox="0 0 50 50" enable-background="new 0 0 50 50" xml:space="preserve">
<g>
	<path fill="#C9148D" d="M25,7.578c-12.289,0-22.287,7.816-22.287,17.424c0,9.605,9.999,17.422,22.287,17.422
		s22.287-7.816,22.287-17.422C47.286,15.394,37.288,7.578,25,7.578 M25,43.938c-13.124,0-23.802-8.495-23.802-18.937
		c0-10.443,10.678-18.94,23.802-18.94c13.125,0,23.803,8.498,23.803,18.94C48.803,35.443,38.124,43.938,25,43.938"/>
	<path fill="#C9148D" d="M14.925,23.578c0.404,0,0.752-0.119,1.043-0.355c0.292-0.238,0.438-0.577,0.438-1.02
		c0-0.339-0.116-0.63-0.348-0.873c-0.233-0.244-0.547-0.367-0.941-0.367c-0.268,0-0.489,0.039-0.662,0.113
		c-0.173,0.076-0.31,0.174-0.413,0.295c-0.1,0.125-0.195,0.281-0.285,0.474s-0.172,0.375-0.247,0.546
		c-0.044,0.092-0.124,0.167-0.236,0.218c-0.115,0.053-0.246,0.08-0.395,0.08c-0.175,0-0.338-0.072-0.484-0.213
		c-0.147-0.144-0.22-0.335-0.22-0.571c0-0.228,0.068-0.468,0.207-0.72c0.139-0.252,0.34-0.493,0.605-0.721
		c0.266-0.228,0.596-0.411,0.991-0.55c0.395-0.138,0.835-0.208,1.323-0.208c0.426,0,0.814,0.058,1.166,0.174
		c0.351,0.117,0.656,0.283,0.914,0.503c0.259,0.22,0.454,0.474,0.586,0.766c0.131,0.288,0.197,0.6,0.197,0.934
		c0,0.439-0.095,0.815-0.286,1.129s-0.464,0.62-0.82,0.917c0.343,0.185,0.631,0.396,0.866,0.632c0.234,0.238,0.412,0.499,0.53,0.786
		c0.119,0.288,0.177,0.6,0.177,0.932c0,0.4-0.08,0.786-0.239,1.16c-0.161,0.371-0.397,0.704-0.709,0.997
		c-0.311,0.29-0.68,0.52-1.108,0.684c-0.428,0.164-0.901,0.246-1.418,0.246c-0.526,0-0.999-0.094-1.417-0.281
		c-0.416-0.19-0.759-0.425-1.029-0.71c-0.27-0.281-0.474-0.574-0.612-0.878c-0.138-0.302-0.208-0.553-0.208-0.749
		c0-0.255,0.083-0.46,0.247-0.616c0.166-0.156,0.37-0.234,0.616-0.234c0.123,0,0.241,0.037,0.355,0.109
		c0.114,0.071,0.188,0.16,0.224,0.261c0.228,0.609,0.473,1.061,0.734,1.358c0.262,0.296,0.629,0.443,1.103,0.443
		c0.271,0,0.534-0.065,0.786-0.199c0.252-0.133,0.461-0.332,0.625-0.597c0.165-0.263,0.248-0.569,0.248-0.916
		c0-0.511-0.141-0.915-0.422-1.207c-0.28-0.292-0.67-0.438-1.172-0.438c-0.086,0-0.224,0.008-0.408,0.025
		c-0.184,0.019-0.303,0.029-0.355,0.029c-0.241,0-0.429-0.062-0.561-0.183c-0.131-0.119-0.197-0.288-0.197-0.503
		c0-0.211,0.079-0.38,0.237-0.509c0.158-0.129,0.393-0.195,0.704-0.195H14.925z"/>
	<path fill="#C9148D" d="M24.813,24.538c0-0.805-0.048-1.461-0.146-1.97c-0.097-0.513-0.259-0.899-0.487-1.16
		c-0.228-0.261-0.543-0.392-0.946-0.392c-0.58,0-0.983,0.292-1.209,0.876c-0.226,0.583-0.34,1.482-0.34,2.699
		c0,0.825,0.048,1.5,0.146,2.026c0.096,0.527,0.258,0.926,0.487,1.197c0.228,0.269,0.538,0.404,0.928,0.404
		c0.403,0,0.719-0.14,0.947-0.423c0.229-0.279,0.389-0.682,0.48-1.203C24.767,26.069,24.813,25.386,24.813,24.538 M26.615,24.669
		c0,0.721-0.043,1.338-0.131,1.856c-0.089,0.519-0.251,0.989-0.487,1.41c-0.298,0.517-0.685,0.917-1.159,1.198
		c-0.474,0.279-1,0.421-1.581,0.421c-0.666,0-1.264-0.189-1.793-0.566c-0.529-0.378-0.926-0.899-1.194-1.566
		c-0.137-0.365-0.236-0.768-0.3-1.209c-0.063-0.441-0.095-0.917-0.095-1.431c0-0.663,0.035-1.26,0.104-1.79
		c0.071-0.532,0.18-0.989,0.33-1.371c0.26-0.632,0.635-1.112,1.13-1.445c0.493-0.331,1.082-0.497,1.767-0.497
		c0.452,0,0.862,0.074,1.23,0.222c0.37,0.146,0.692,0.361,0.971,0.645c0.279,0.283,0.514,0.632,0.707,1.051
		C26.449,22.319,26.615,23.346,26.615,24.669"/>
	<path fill="#C9148D" d="M37.215,26.921c0-0.566-0.064-0.979-0.186-1.239c-0.123-0.263-0.34-0.392-0.65-0.392
		c-0.22,0-0.392,0.06-0.515,0.183s-0.21,0.304-0.261,0.543c-0.05,0.24-0.076,0.551-0.076,0.933c0,0.587,0.063,1.018,0.188,1.288
		c0.126,0.273,0.345,0.409,0.663,0.409s0.538-0.14,0.657-0.417C37.155,27.949,37.215,27.515,37.215,26.921 M38.444,26.987
		c0,0.839-0.183,1.461-0.553,1.869c-0.369,0.408-0.874,0.612-1.513,0.612c-0.4,0-0.757-0.089-1.071-0.263
		c-0.314-0.177-0.561-0.446-0.736-0.812c-0.179-0.363-0.268-0.813-0.268-1.349c0-0.855,0.164-1.5,0.491-1.931
		c0.326-0.433,0.846-0.648,1.556-0.648c0.343,0,0.643,0.051,0.898,0.158c0.257,0.104,0.477,0.263,0.659,0.474
		c0.183,0.209,0.318,0.472,0.404,0.786C38.4,26.198,38.444,26.566,38.444,26.987 M36.094,20.563l-5.482,8.84
		c-0.14,0.24-0.298,0.361-0.474,0.361c-0.101,0-0.203-0.037-0.304-0.112c-0.101-0.078-0.15-0.179-0.15-0.3
		c0-0.093,0.043-0.205,0.132-0.337l5.517-8.912c0.095-0.164,0.181-0.285,0.253-0.367c0.071-0.08,0.177-0.121,0.312-0.121
		c0.132,0,0.238,0.039,0.32,0.115c0.08,0.078,0.121,0.179,0.121,0.306C36.338,20.127,36.258,20.304,36.094,20.563 M30.474,22.164
		c0-0.577-0.063-0.994-0.185-1.256c-0.123-0.261-0.341-0.39-0.652-0.39c-0.21,0-0.378,0.062-0.503,0.187s-0.212,0.308-0.257,0.552
		c-0.047,0.244-0.069,0.554-0.069,0.932c0,0.39,0.022,0.708,0.069,0.955c0.045,0.246,0.13,0.431,0.253,0.556
		s0.291,0.189,0.507,0.189c0.324,0,0.546-0.14,0.663-0.417C30.414,23.196,30.474,22.759,30.474,22.164 M31.703,22.227
		c0,0.839-0.183,1.461-0.552,1.87c-0.369,0.409-0.874,0.614-1.515,0.614c-0.395,0-0.749-0.088-1.063-0.261
		c-0.313-0.174-0.559-0.445-0.732-0.813c-0.177-0.37-0.263-0.819-0.263-1.351c0-0.571,0.067-1.047,0.203-1.429
		s0.354-0.671,0.661-0.868c0.306-0.197,0.693-0.295,1.168-0.295c0.343,0,0.645,0.051,0.902,0.158
		c0.259,0.104,0.479,0.267,0.659,0.482c0.179,0.218,0.312,0.482,0.4,0.794C31.66,21.441,31.703,21.806,31.703,22.227"/>
</g>
</svg>
