<?xml version="1.0" encoding="utf-8"?>
<!DOCTYPE svg PUBLIC "-//W3C//DTD SVG 1.1//EN" "http://www.w3.org/Graphics/SVG/1.1/DTD/svg11.dtd">
<svg version="1.1" id="Layer_1" xmlns="http://www.w3.org/2000/svg" xmlns:xlink="http://www.w3.org/1999/xlink" x="0px" y="0px"
	 width="50px" height="50px" viewBox="0 0 50 50" enable-background="new 0 0 50 50" xml:space="preserve">
<g>
	<path fill="#C9148D" d="M25,2.616c-12.184,0-22.099,10.04-22.099,22.385c0,12.343,9.915,22.385,22.099,22.385
		c12.185,0,22.099-10.042,22.099-22.385C47.099,12.656,37.185,2.616,25,2.616 M25,48.786c-12.947,0-23.483-10.671-23.483-23.785
		C1.517,11.884,12.053,1.214,25,1.214s23.483,10.67,23.483,23.787C48.483,38.115,37.947,48.786,25,48.786"/>
	<path fill="#C9148D" d="M18.765,15.224c-0.119,0-0.239,0.002-0.359,0.008c-3.995,0.188-7.206,3.509-7.309,7.562
		c-0.026,0.975,0.126,1.928,0.446,2.834c0.134,0.332,0.341,0.66,0.603,0.945L25,40.604l12.816-13.99
		c0.286-0.311,0.508-0.668,0.663-1.065c0.028-0.074,0.056-0.148,0.078-0.225c0.228-0.737,0.346-1.506,0.35-2.284
		c0.02-4.221-3.35-7.728-7.515-7.815c-2.244-0.046-4.382,0.895-5.877,2.582c-0.131,0.148-0.316,0.232-0.513,0.233H25
		c-0.194,0-0.38-0.083-0.511-0.229l-0.074-0.083C22.957,16.126,20.914,15.224,18.765,15.224 M25,42.334
		c-0.193,0-0.376-0.08-0.506-0.224L11.13,27.525c-0.375-0.41-0.671-0.879-0.881-1.397c-0.389-1.099-0.566-2.222-0.536-3.371
		c0.122-4.784,3.913-8.705,8.629-8.926c2.48-0.114,4.873,0.79,6.657,2.503c1.725-1.653,4.029-2.557,6.422-2.51
		c4.914,0.103,8.893,4.24,8.868,9.222c-0.005,0.919-0.142,1.826-0.411,2.696c-0.033,0.109-0.071,0.214-0.111,0.32
		c-0.219,0.559-0.534,1.067-0.938,1.507L25.508,42.11C25.376,42.254,25.193,42.334,25,42.334"/>
	<path fill="#C9148D" d="M39.82,42.728c-0.192,0-0.383-0.081-0.52-0.238L9.663,8.438C9.409,8.149,9.438,7.706,9.724,7.449
		c0.286-0.256,0.725-0.228,0.976,0.062l29.637,34.05c0.254,0.291,0.227,0.735-0.061,0.989C40.146,42.669,39.981,42.728,39.82,42.728
		"/>
</g>
</svg>
