<?xml version="1.0" encoding="utf-8"?>
<!-- Generator: Adobe Illustrator 16.0.0, SVG Export Plug-In . SVG Version: 6.00 Build 0)  -->
<!DOCTYPE svg PUBLIC "-//W3C//DTD SVG 1.1//EN" "http://www.w3.org/Graphics/SVG/1.1/DTD/svg11.dtd">
<svg version="1.1" id="Layer_1" xmlns="http://www.w3.org/2000/svg" xmlns:xlink="http://www.w3.org/1999/xlink" x="0px" y="0px"
	 width="50px" height="50px" viewBox="0 0 50 50" enable-background="new 0 0 50 50" xml:space="preserve">
<g>
	<path fill="#3FC2CD" d="M30.074,35.579c-0.355,0-0.643-0.287-0.643-0.643V27.76c0-3.311-2.693-6.003-6.004-6.003
		c-3.311,0-6.004,2.692-6.004,6.003v7.177c0,0.355-0.288,0.643-0.643,0.643c-0.355,0-0.643-0.287-0.643-0.643V27.76
		c0-4.019,3.27-7.289,7.29-7.289c4.019,0,7.29,3.27,7.29,7.289v7.177C30.718,35.292,30.429,35.579,30.074,35.579"/>
	<path fill="#3FC2CD" d="M23.427,11.206c-2.555,0-4.632,2.079-4.632,4.633s2.078,4.632,4.632,4.632c2.554,0,4.631-2.078,4.631-4.632
		S25.981,11.206,23.427,11.206 M23.427,21.756c-3.264,0-5.918-2.654-5.918-5.918s2.655-5.918,5.918-5.918
		c3.263,0,5.917,2.655,5.917,5.918S26.69,21.756,23.427,21.756"/>
	<path fill="#3FC2CD" d="M1.854,38.794h46.291v-3.215H1.854V38.794z M48.789,40.08H1.211c-0.355,0-0.643-0.287-0.643-0.643v-4.501
		c0-0.355,0.288-0.643,0.643-0.643h47.578c0.354,0,0.643,0.287,0.643,0.643v4.501C49.432,39.793,49.144,40.08,48.789,40.08"/>
	<path fill="#3FC2CD" d="M14.28,35.579c-0.048,0-0.095-0.005-0.144-0.015c-0.208-0.048-5.099-1.203-6.262-5.274
		c-0.202-0.705-0.101-1.414,0.3-2.105c1.786-3.073,9.497-4.99,9.824-5.071c0.344-0.085,0.693,0.127,0.777,0.472
		c0.085,0.345-0.126,0.693-0.472,0.777c-2.083,0.51-7.763,2.308-9.018,4.468c-0.222,0.383-0.28,0.744-0.177,1.107
		c0.953,3.332,5.269,4.361,5.312,4.371c0.346,0.079,0.563,0.425,0.483,0.771C14.837,35.379,14.572,35.579,14.28,35.579"/>
	<path fill="#3FC2CD" d="M35.521,33.896h6.027v-7.475h-0.729c-0.949,0-1.722-0.771-1.722-1.721v-1.012h-1.125v1.012
		c0,0.949-0.772,1.721-1.722,1.721h-0.729V33.896z M42.191,35.182h-7.313c-0.355,0-0.644-0.287-0.644-0.643v-8.76
		c0-0.355,0.288-0.643,0.644-0.643h1.372c0.241,0,0.436-0.195,0.436-0.435v-1.654c0-0.355,0.288-0.643,0.644-0.643h2.411
		c0.354,0,0.643,0.288,0.643,0.643v1.654c0,0.24,0.195,0.435,0.436,0.435h1.373c0.354,0,0.643,0.288,0.643,0.643v8.76
		C42.834,34.895,42.546,35.182,42.191,35.182"/>
	<path fill="#3FC2CD" d="M34.878,30.897c-0.091,0-0.182-0.019-0.269-0.059c-4.555-2.093-6.427-6.678-6.504-6.871
		c-0.132-0.33,0.029-0.703,0.357-0.835c0.331-0.132,0.704,0.029,0.837,0.358c0.017,0.042,1.77,4.307,5.847,6.179
		c0.322,0.149,0.464,0.53,0.315,0.853C35.354,30.759,35.12,30.897,34.878,30.897"/>
</g>
</svg>
