<?xml version="1.0" encoding="utf-8"?>
<!-- Generator: Adobe Illustrator 16.0.0, SVG Export Plug-In . SVG Version: 6.00 Build 0)  -->
<!DOCTYPE svg PUBLIC "-//W3C//DTD SVG 1.1//EN" "http://www.w3.org/Graphics/SVG/1.1/DTD/svg11.dtd">
<svg version="1.1" id="Layer_1" xmlns="http://www.w3.org/2000/svg" xmlns:xlink="http://www.w3.org/1999/xlink" x="0px" y="0px"
	 width="50px" height="50px" viewBox="0 0 50 50" enable-background="new 0 0 50 50" xml:space="preserve">
<g>
	<path fill="#40C2CE" d="M38.064,13.416c-1.433,0-2.6,1.167-2.6,2.6c0,1.433,1.167,2.599,2.6,2.599c1.434,0,2.6-1.167,2.6-2.599
		C40.664,14.582,39.498,13.416,38.064,13.416 M38.064,20.254c-2.337,0-4.238-1.902-4.238-4.239c0-2.337,1.901-4.239,4.238-4.239
		c2.338,0,4.239,1.902,4.239,4.239C42.304,18.352,40.402,20.254,38.064,20.254"/>
	<path fill="#40C2CE" d="M37.326,25.393h1.477l0.351-2.907c0.039-0.327,0.27-0.598,0.585-0.69c0.931-0.269,1.794-0.768,2.494-1.44
		c0.237-0.229,0.588-0.293,0.89-0.164l2.695,1.151l0.738-1.279l-2.344-1.756c-0.262-0.197-0.382-0.532-0.304-0.852
		c0.117-0.473,0.176-0.958,0.176-1.441c0-0.484-0.059-0.969-0.176-1.442c-0.078-0.319,0.042-0.654,0.304-0.851l2.344-1.756
		l-0.738-1.278l-2.695,1.15c-0.302,0.13-0.652,0.065-0.89-0.163c-0.701-0.674-1.563-1.172-2.493-1.441
		c-0.316-0.091-0.547-0.362-0.586-0.689l-0.351-2.907h-1.477l-0.35,2.907c-0.039,0.327-0.27,0.598-0.586,0.689
		c-0.93,0.269-1.792,0.768-2.493,1.441c-0.237,0.228-0.588,0.292-0.891,0.163l-2.694-1.15l-0.737,1.278l2.342,1.756
		c0.263,0.197,0.383,0.532,0.304,0.851c-0.116,0.474-0.174,0.958-0.174,1.442c0,0.483,0.058,0.968,0.174,1.441
		c0.079,0.319-0.041,0.655-0.304,0.852l-2.342,1.756l0.737,1.279l2.694-1.151c0.304-0.129,0.654-0.065,0.891,0.164
		c0.7,0.673,1.563,1.171,2.493,1.44c0.316,0.092,0.547,0.363,0.586,0.69L37.326,25.393z M39.53,27.031h-2.932
		c-0.414,0-0.764-0.311-0.813-0.723l-0.375-3.111c-0.812-0.3-1.572-0.74-2.239-1.294l-2.884,1.232
		c-0.381,0.162-0.824,0.016-1.031-0.343l-1.466-2.539c-0.207-0.359-0.113-0.816,0.218-1.065l2.508-1.881
		c-0.072-0.427-0.109-0.86-0.109-1.292c0-0.433,0.037-0.867,0.109-1.293l-2.508-1.88c-0.331-0.249-0.425-0.708-0.218-1.066
		l1.466-2.538c0.207-0.359,0.65-0.506,1.031-0.344l2.884,1.232c0.668-0.555,1.428-0.994,2.239-1.295l0.375-3.111
		c0.049-0.412,0.398-0.722,0.813-0.722h2.932c0.415,0,0.764,0.311,0.813,0.722l0.375,3.111c0.811,0.301,1.571,0.74,2.238,1.295
		l2.885-1.232c0.381-0.164,0.824-0.016,1.031,0.344l1.466,2.538c0.207,0.358,0.113,0.817-0.218,1.066l-2.509,1.88
		c0.074,0.427,0.11,0.86,0.11,1.293c0,0.432-0.036,0.865-0.11,1.292l2.509,1.881c0.331,0.249,0.425,0.707,0.218,1.065l-1.466,2.539
		c-0.207,0.359-0.649,0.506-1.031,0.343l-2.885-1.232c-0.667,0.554-1.427,0.994-2.238,1.294l-0.375,3.111
		C40.294,26.721,39.945,27.031,39.53,27.031"/>
	<path fill="#40C2CE" d="M25.004,42.973H10.383c-0.454,0-0.82-0.366-0.82-0.819s0.366-0.82,0.82-0.82h14.622
		c1.238,0,2.438-0.257,3.568-0.764l16.162-7.25c0.637-0.285,0.966-0.981,0.784-1.654c-0.199-0.738-0.965-1.187-1.706-1.001
		l-14.386,3.618c-1.869,0.469-3.886,0.167-5.534-0.831l-5.817-3.521c-0.314-0.19-0.463-0.567-0.365-0.921
		c0.099-0.355,0.421-0.601,0.79-0.601h7.049c1.266,0,2.339-0.839,2.69-1.992H16.181l-5.351,3.499
		c-0.379,0.248-0.887,0.141-1.134-0.237c-0.248-0.379-0.141-0.888,0.238-1.136l5.554-3.631c0.134-0.087,0.289-0.134,0.449-0.134
		h13.245c0.452,0,0.819,0.368,0.819,0.82c0,2.455-1.996,4.452-4.451,4.452h-4.113l3.305,2.001c1.276,0.771,2.838,1.006,4.285,0.643
		l14.388-3.618c1.602-0.403,3.257,0.567,3.687,2.163c0.395,1.455-0.319,2.96-1.695,3.576l-16.162,7.252
		C27.901,42.668,26.477,42.973,25.004,42.973"/>
	<path fill="#40C2CE" d="M3.191,43.363h6.372V27.484H3.191V43.363z M10.382,45.002H2.371c-0.453,0-0.819-0.365-0.819-0.818V26.666
		c0-0.454,0.366-0.821,0.819-0.821h8.011c0.453,0,0.819,0.367,0.819,0.821v17.518C11.201,44.637,10.835,45.002,10.382,45.002"/>
</g>
</svg>
