<?xml version="1.0" encoding="utf-8"?>
<!-- Generator: Adobe Illustrator 16.0.0, SVG Export Plug-In . SVG Version: 6.00 Build 0)  -->
<!DOCTYPE svg PUBLIC "-//W3C//DTD SVG 1.1//EN" "http://www.w3.org/Graphics/SVG/1.1/DTD/svg11.dtd">
<svg version="1.1" id="Layer_1" xmlns="http://www.w3.org/2000/svg" xmlns:xlink="http://www.w3.org/1999/xlink" x="0px" y="0px"
	 width="50px" height="50px" viewBox="0 0 50 50" enable-background="new 0 0 50 50" xml:space="preserve">
<g>
	<path fill="#3FC2CD" d="M13.277,27.536c-0.033-0.438-0.063-0.83-0.092-1.223c4.947-0.367,8.579-4.563,8.436-9.373
		c-0.132-4.396-3.482-8.271-7.814-8.977C9.363,7.24,5.192,9.67,3.673,13.839c-1.566,4.308,0.447,9.907,5.531,11.877
		c-0.143,0.367-0.283,0.734-0.442,1.154c-3.714-1.621-6.095-4.323-6.697-8.314c-0.647-4.278,0.81-7.866,4.468-10.221
		c4.391-2.828,8.707-2.196,12.756,0.875c1.793-1.792,3.603-3.603,5.428-5.429h-7.691V2.539h9.904v9.888h-1.223V4.756
		c-1.833,1.832-3.646,3.645-5.444,5.442c2.919,3.791,3.577,7.884,1.209,12.187C19.727,25.548,16.882,27.163,13.277,27.536"/>
</g>
<g>
	<path fill="#C9148D" d="M26.806,26.739c0.605,5.797,5.922,10.182,11.865,9.297c2.438-0.363,4.484-1.479,6.139-3.298
		c1.186-1.3,1.986-2.81,2.404-4.544c-0.42-0.104-0.791-0.191-1.195-0.291c-0.418,1.578-1.156,2.961-2.266,4.139
		c-1.121,1.188-2.461,2.021-4.023,2.492c-1.555,0.467-3.121,0.494-4.693,0.117c-4.262-1.018-7.203-4.979-7-9.551
		c0.197-4.486,3.584-8.108,7.902-8.716c4.088-0.574,8.902,1.965,10.16,7.169c0.383-0.084,0.768-0.168,1.146-0.252v-0.001
		c-0.695-3.775-4.314-8.21-10.137-8.231c-0.182,0-0.361,0.003-0.541,0.013h-0.002c-5.555,0.272-9.885,5.05-9.828,10.378
		L26.806,26.739z"/>
</g>
<g>
	<path fill="#C9148D" d="M36.396,36.071v1.635H30.13v1.241h6.289v6.356h1.248V38.94h6.305v-1.256h-6.295v-1.619
		c0.041-0.002,0.082-0.008,0.123-0.01h-1.648C36.233,36.06,36.313,36.068,36.396,36.071"/>
</g>
<g>
	<path fill="#FFFFFF" d="M31.357,27.811c0-0.916,0.498-1.539,1.492-1.871c-0.867-0.285-1.301-0.849-1.301-1.688
		c0-0.624,0.25-1.128,0.748-1.514c0.5-0.386,1.162-0.578,1.99-0.578c0.836,0,1.498,0.188,1.98,0.562s0.729,0.876,0.729,1.507
		c0,0.833-0.429,1.399-1.283,1.7c0.986,0.311,1.479,0.938,1.479,1.883c0,0.633-0.27,1.146-0.805,1.539
		c-0.537,0.396-1.241,0.59-2.113,0.59c-0.904,0-1.618-0.191-2.139-0.578C31.617,28.975,31.357,28.459,31.357,27.811z M32.504,27.715
		c0,0.383,0.16,0.699,0.477,0.943s0.752,0.365,1.307,0.365c0.574,0,1.01-0.115,1.312-0.348c0.3-0.23,0.448-0.553,0.448-0.963
		c0-0.398-0.157-0.719-0.476-0.963c-0.317-0.242-0.749-0.363-1.296-0.363c-0.555,0-0.988,0.119-1.302,0.355
		C32.662,26.979,32.504,27.305,32.504,27.715z M32.696,24.319c0,0.359,0.142,0.648,0.425,0.868c0.282,0.221,0.672,0.329,1.166,0.329
		c0.493,0,0.877-0.103,1.151-0.313c0.274-0.211,0.411-0.504,0.411-0.881s-0.139-0.68-0.417-0.905
		c-0.277-0.229-0.663-0.341-1.157-0.341c-0.509,0-0.9,0.109-1.172,0.329S32.696,23.929,32.696,24.319z"/>
	<path fill="#FFFFFF" d="M37.967,28.465c0-0.125,0.043-0.238,0.133-0.342c0.088-0.104,0.18-0.178,0.273-0.219
		c0.092-0.041,0.147-0.051,0.164-0.027c0.457,0.744,1.154,1.115,2.101,1.115c0.547,0,0.983-0.135,1.31-0.402
		c0.327-0.268,0.49-0.629,0.49-1.084s-0.148-0.811-0.447-1.066c-0.298-0.258-0.713-0.385-1.244-0.385
		c-0.709,0-1.291,0.172-1.748,0.52c-0.481-0.029-0.727-0.275-0.729-0.738v-2.849c0-0.199,0.055-0.36,0.164-0.485
		s0.26-0.188,0.451-0.188h3.764c0.369,0,0.555,0.16,0.555,0.48v0.056c0,0.313-0.186,0.47-0.555,0.47H39.32v2.149
		c0.473-0.221,0.985-0.331,1.54-0.331c0.81,0,1.458,0.213,1.947,0.64c0.489,0.428,0.733,0.998,0.733,1.713
		c0,0.75-0.261,1.35-0.779,1.793c-0.52,0.445-1.227,0.668-2.123,0.668c-0.764,0-1.4-0.16-1.908-0.482
		C38.221,29.146,37.967,28.811,37.967,28.465z"/>
</g>
<g>
	<path fill="#FFFFFF" d="M7.326,14.547c0-0.117,0.023-0.227,0.074-0.326c0.049-0.1,0.1-0.172,0.15-0.215s0.084-0.062,0.098-0.053
		c0.188,0.19,0.408,0.287,0.664,0.287c0.242,0,0.447-0.089,0.615-0.27c0.168-0.18,0.268-0.406,0.297-0.68h0.432
		c0.367,0,0.551,0.181,0.551,0.542v6.514c0,0.362-0.174,0.543-0.523,0.543H9.529c-0.342,0-0.512-0.181-0.512-0.541v-5.348
		c-0.207,0.192-0.463,0.291-0.771,0.291c-0.27,0-0.49-0.069-0.662-0.206S7.326,14.768,7.326,14.547z"/>
	<path fill="#FFFFFF" d="M11.611,19.5c0-0.125,0.045-0.238,0.135-0.342c0.088-0.104,0.18-0.178,0.273-0.219
		c0.092-0.041,0.148-0.051,0.164-0.027c0.455,0.742,1.154,1.115,2.1,1.115c0.547,0,0.982-0.135,1.313-0.402
		c0.324-0.268,0.488-0.629,0.488-1.084s-0.148-0.811-0.447-1.064c-0.299-0.26-0.713-0.387-1.244-0.387
		c-0.709,0-1.291,0.172-1.748,0.521c-0.48-0.03-0.727-0.276-0.729-0.741v-2.85c0-0.199,0.055-0.359,0.164-0.484
		c0.107-0.125,0.26-0.188,0.451-0.188h3.764c0.369,0,0.555,0.16,0.555,0.48v0.056c0,0.313-0.186,0.469-0.555,0.469h-3.328v2.15
		c0.473-0.222,0.986-0.331,1.541-0.331c0.809,0,1.457,0.213,1.947,0.64c0.486,0.428,0.73,0.999,0.73,1.712
		c0,0.752-0.26,1.352-0.777,1.796c-0.52,0.442-1.229,0.666-2.121,0.666c-0.766,0-1.4-0.16-1.908-0.481
		C11.867,20.181,11.611,19.847,11.611,19.5z"/>
</g>
<g>
	<path fill="#FFFFFF" d="M10.139,26.431v-0.028c0-0.14,0.048-0.257,0.144-0.353c0.096-0.094,0.215-0.142,0.358-0.142
		s0.267,0.046,0.371,0.14c0.104,0.092,0.155,0.209,0.155,0.348v0.027c0,0.141-0.054,0.256-0.158,0.352
		c-0.104,0.095-0.229,0.142-0.372,0.142c-0.144,0-0.263-0.047-0.357-0.139C10.187,26.685,10.139,26.569,10.139,26.431z
		 M10.291,27.931c0-0.049,0.033-0.104,0.097-0.17l1.657-1.86c0.004-0.004,0.021-0.003,0.043,0.005
		c0.024,0.007,0.05,0.021,0.072,0.04c0.024,0.02,0.036,0.045,0.036,0.075c0,0.047-0.03,0.105-0.092,0.174l-1.662,1.854
		c-0.004,0.008-0.019,0.008-0.044-0.002c-0.025-0.008-0.049-0.021-0.072-0.043C10.303,27.985,10.291,27.96,10.291,27.931z
		 M10.384,26.438c0,0.078,0.023,0.145,0.072,0.195c0.047,0.053,0.108,0.077,0.185,0.077c0.075,0,0.137-0.024,0.185-0.075
		c0.047-0.052,0.07-0.117,0.07-0.197v-0.047c0-0.082-0.023-0.148-0.072-0.201c-0.048-0.053-0.109-0.08-0.185-0.08
		c-0.076,0-0.138,0.027-0.185,0.078s-0.07,0.119-0.07,0.203V26.438z M11.337,27.556v-0.028c0-0.14,0.053-0.257,0.158-0.351
		c0.104-0.096,0.229-0.144,0.371-0.144c0.141,0,0.262,0.046,0.355,0.14c0.094,0.092,0.141,0.207,0.141,0.348v0.027
		c0,0.141-0.047,0.256-0.143,0.352c-0.096,0.095-0.215,0.142-0.358,0.142s-0.267-0.047-0.37-0.139
		C11.388,27.81,11.337,27.694,11.337,27.556z M11.611,27.563c0,0.078,0.023,0.145,0.072,0.195c0.048,0.053,0.109,0.077,0.184,0.077
		c0.072,0,0.133-0.024,0.182-0.075c0.049-0.052,0.072-0.117,0.072-0.197v-0.049c0-0.082-0.023-0.148-0.072-0.201
		c-0.049-0.051-0.108-0.078-0.185-0.078c-0.075,0-0.135,0.027-0.182,0.078c-0.048,0.051-0.07,0.119-0.07,0.201L11.611,27.563
		L11.611,27.563z"/>
</g>
<g>
	<path fill="#FFFFFF" d="M45.856,25.272v-0.026c0-0.141,0.049-0.257,0.145-0.353c0.098-0.095,0.215-0.142,0.357-0.142
		c0.145,0,0.27,0.046,0.371,0.139c0.105,0.093,0.156,0.208,0.156,0.349v0.027c0,0.14-0.053,0.256-0.156,0.351
		c-0.105,0.095-0.229,0.142-0.373,0.142s-0.262-0.047-0.357-0.139S45.856,25.413,45.856,25.272z M46.009,26.776
		c0-0.051,0.031-0.107,0.096-0.172l1.66-1.859c0.004-0.005,0.02-0.004,0.041,0.004c0.023,0.007,0.049,0.02,0.072,0.04
		c0.023,0.02,0.037,0.045,0.037,0.074c0,0.048-0.031,0.104-0.092,0.175l-1.662,1.854c-0.006,0.006-0.021,0.006-0.045-0.002
		c-0.025-0.009-0.051-0.021-0.072-0.043C46.021,26.829,46.009,26.804,46.009,26.776z M46.103,25.281c0,0.079,0.023,0.146,0.07,0.195
		c0.051,0.053,0.111,0.078,0.188,0.078s0.139-0.024,0.186-0.076c0.047-0.051,0.068-0.116,0.068-0.197v-0.048
		c0-0.081-0.021-0.146-0.07-0.2s-0.109-0.078-0.188-0.078c-0.076,0-0.137,0.024-0.184,0.077c-0.047,0.052-0.07,0.118-0.07,0.201
		V25.281z M47.058,26.399V26.37c0-0.139,0.051-0.256,0.154-0.352c0.104-0.095,0.229-0.142,0.373-0.142
		c0.143,0,0.264,0.045,0.355,0.138c0.094,0.094,0.143,0.209,0.143,0.35v0.029c0,0.139-0.049,0.254-0.145,0.35
		c-0.096,0.094-0.215,0.141-0.357,0.141s-0.268-0.047-0.369-0.139C47.108,26.653,47.058,26.538,47.058,26.399z M47.329,26.407
		c0,0.078,0.023,0.145,0.072,0.195c0.049,0.053,0.109,0.078,0.184,0.078c0.076,0,0.135-0.025,0.182-0.076
		c0.049-0.051,0.072-0.117,0.072-0.197v-0.049c0-0.082-0.023-0.148-0.072-0.199c-0.047-0.053-0.107-0.078-0.184-0.078
		s-0.137,0.025-0.184,0.076c-0.047,0.053-0.07,0.119-0.07,0.201V26.407z"/>
</g>
<g>
	<path fill="#FFFFFF" d="M10.574,2.727h-0.303v1.145H10.1V3.4c-0.078,0.052-0.164,0.077-0.26,0.077
		c-0.109,0-0.209-0.034-0.291-0.102c-0.09-0.071-0.133-0.164-0.133-0.273V2.727H9.291V2.571h1.281v0.156H10.574z M10.1,3.211V2.727
		H9.59v0.332c0,0.082,0.029,0.145,0.088,0.189c0.051,0.039,0.109,0.059,0.184,0.059C9.947,3.307,10.029,3.276,10.1,3.211z"/>
	<path fill="#FFFFFF" d="M10.494,4.163c0,0.121-0.043,0.215-0.129,0.283c-0.08,0.063-0.182,0.094-0.307,0.094
		c-0.133,0-0.299-0.057-0.494-0.168l0.08-0.154c0.178,0.099,0.318,0.146,0.42,0.146c0.072,0,0.129-0.015,0.176-0.046
		c0.057-0.034,0.084-0.087,0.084-0.153c0-0.047-0.016-0.084-0.047-0.114c-0.029-0.03-0.066-0.048-0.111-0.048
		c-0.078,0-0.143,0.022-0.191,0.065l-0.07-0.149c0.068-0.062,0.154-0.092,0.258-0.092c0.094,0,0.172,0.033,0.236,0.1
		S10.494,4.071,10.494,4.163z"/>
	<path fill="#FFFFFF" d="M11.764,2.727h-0.646v0.291c0,0.109-0.01,0.193-0.025,0.247C11.061,3.357,11,3.403,10.91,3.403l0.398,0.467
		l-0.135,0.112l-0.633-0.737l0.135-0.111l0.107,0.126c0.006,0.006,0.016,0.009,0.031,0.009c0.086,0,0.129-0.066,0.129-0.202V2.728
		h-0.439V2.571h1.26V2.727z"/>
	<path fill="#FFFFFF" d="M11.369,3.431c0.049-0.054,0.074-0.108,0.082-0.163c0.012-0.064-0.01-0.12-0.061-0.164
		c-0.033-0.029-0.072-0.043-0.115-0.042c-0.043,0.003-0.08,0.021-0.109,0.054c-0.053,0.061-0.127,0.121-0.127,0.188L10.93,3.256
		c0-0.092,0.033-0.178,0.102-0.256c0.063-0.067,0.139-0.104,0.23-0.108c0.092-0.005,0.174,0.021,0.242,0.083
		c0.09,0.08,0.133,0.175,0.127,0.284c-0.006,0.103-0.053,0.198-0.133,0.291"/>
	<path fill="#FFFFFF" d="M12.975,2.727h-0.301v1.145H12.5V3.4c-0.07,0.052-0.156,0.077-0.258,0.077
		c-0.111,0-0.211-0.034-0.293-0.102c-0.088-0.071-0.133-0.164-0.133-0.273V2.727h-0.125V2.571h1.283V2.727L12.975,2.727z
		 M12.393,3.274L11.99,2.788v0.271c0,0.064,0.027,0.123,0.078,0.175c0.053,0.052,0.111,0.076,0.178,0.076
		C12.303,3.31,12.35,3.298,12.393,3.274z M12.5,3.167V2.727h-0.375L12.5,3.167z"/>
	<path fill="#FFFFFF" d="M13.502,2.727h-0.303v1.145h-0.174V2.727h-0.123V2.571h0.102l-0.408-0.43l0.117-0.118l0.498,0.548h0.291
		V2.727L13.502,2.727z"/>
	<path fill="#FFFFFF" d="M13.25,2.146l-0.139,0.138l-0.137-0.138l0.137-0.137L13.25,2.146z"/>
</g>
<g>
	<g>
		<path fill="#FFFFFF" d="M35.376,46.624h-0.297v1.131h-0.172v-0.537H34.42v0.043c0,0.056-0.006,0.104-0.02,0.144
			c-0.012,0.042-0.029,0.074-0.053,0.101c-0.023,0.027-0.051,0.047-0.086,0.06c-0.033,0.013-0.072,0.019-0.115,0.019
			c-0.035,0-0.067-0.006-0.098-0.021c-0.029-0.015-0.053-0.034-0.072-0.06c-0.021-0.024-0.035-0.051-0.045-0.084
			s-0.017-0.066-0.017-0.104c0-0.028,0.005-0.058,0.017-0.088s0.028-0.058,0.051-0.082c0.025-0.022,0.055-0.043,0.091-0.06
			c0.034-0.017,0.079-0.022,0.129-0.022h0.047v-0.438H33.85v-0.156h1.525L35.376,46.624L35.376,46.624z M34.249,47.218
			c-0.067,0-0.112,0.009-0.139,0.025c-0.026,0.018-0.04,0.041-0.04,0.072c0,0.032,0.007,0.061,0.021,0.083
			c0.012,0.022,0.033,0.034,0.063,0.034c0.021,0,0.034-0.006,0.047-0.016c0.015-0.008,0.022-0.021,0.028-0.035
			c0.007-0.016,0.012-0.031,0.015-0.051c0.001-0.017,0.004-0.035,0.004-0.054V47.218z M34.907,47.063v-0.438H34.42v0.438H34.907z"/>
	</g>
	<g>
		<path fill="#FFFFFF" d="M37.018,46.624h-0.356v0.323h-0.44c-0.019,0-0.035,0.005-0.049,0.011
			c-0.017,0.006-0.029,0.016-0.041,0.026c-0.012,0.013-0.021,0.024-0.027,0.039c-0.006,0.015-0.01,0.03-0.01,0.048
			c0,0.025,0.006,0.047,0.018,0.067c0.011,0.021,0.025,0.036,0.046,0.05c0.03-0.02,0.067-0.034,0.108-0.045
			c0.039-0.012,0.084-0.018,0.135-0.018c0.063,0,0.115,0.01,0.162,0.026c0.048,0.019,0.086,0.041,0.115,0.07
			c0.03,0.03,0.055,0.063,0.069,0.101c0.015,0.038,0.022,0.078,0.022,0.118c0,0.031-0.006,0.062-0.016,0.087
			c-0.01,0.028-0.021,0.053-0.035,0.075c-0.015,0.022-0.029,0.043-0.045,0.06c-0.015,0.017-0.027,0.029-0.037,0.039l-0.121-0.109
			c0.006-0.008,0.016-0.016,0.024-0.024c0.011-0.01,0.021-0.021,0.029-0.03c0.01-0.012,0.017-0.023,0.024-0.039
			c0.006-0.013,0.01-0.026,0.01-0.043c0-0.015-0.004-0.033-0.01-0.053c-0.004-0.018-0.016-0.035-0.029-0.054
			c-0.016-0.017-0.036-0.03-0.064-0.042c-0.027-0.012-0.064-0.018-0.107-0.018c-0.037,0-0.07,0.006-0.104,0.018
			c-0.032,0.011-0.062,0.025-0.087,0.046s-0.045,0.045-0.061,0.073c-0.017,0.029-0.023,0.062-0.023,0.098
			c0,0.061,0.014,0.112,0.038,0.154c0.024,0.043,0.058,0.078,0.095,0.109c0.038,0.03,0.081,0.059,0.127,0.08
			c0.047,0.022,0.09,0.043,0.133,0.063l-0.076,0.137c-0.037-0.011-0.072-0.024-0.11-0.04c-0.038-0.017-0.075-0.035-0.11-0.061
			c-0.035-0.021-0.068-0.049-0.101-0.078c-0.031-0.03-0.06-0.063-0.082-0.1c-0.024-0.037-0.043-0.078-0.058-0.123
			c-0.015-0.043-0.021-0.092-0.021-0.145c0-0.016,0.002-0.031,0.005-0.051s0.01-0.039,0.016-0.061
			c0.008-0.02,0.018-0.039,0.028-0.061s0.024-0.041,0.04-0.063c-0.033-0.026-0.063-0.062-0.083-0.099
			c-0.021-0.039-0.03-0.079-0.03-0.121c0-0.037,0.008-0.071,0.021-0.104c0.013-0.032,0.03-0.063,0.054-0.088
			c0.024-0.025,0.053-0.045,0.084-0.061c0.032-0.016,0.067-0.021,0.105-0.021h0.299v-0.17h-0.632v-0.156h1.159V46.624L37.018,46.624
			z"/>
	</g>
	<g>
		<path fill="#FFFFFF" d="M35.895,46.468v0.156H35.6v1.129h-0.172v-1.129h-0.227v-0.156"/>
	</g>
	<g>
		<path fill="#FFFFFF" d="M38.381,46.624h-0.298v1.131h-0.171v-0.551l-0.385,0.213l-0.085-0.136l0.139-0.082
			c-0.043-0.092-0.114-0.14-0.218-0.14c-0.131,0-0.197,0.064-0.197,0.193c0,0.113,0.092,0.271,0.276,0.472l-0.147,0.065
			c-0.095-0.104-0.162-0.185-0.203-0.242c-0.072-0.106-0.109-0.202-0.109-0.289c0-0.115,0.039-0.207,0.113-0.275
			c0.067-0.063,0.157-0.096,0.269-0.096c0.073,0,0.146,0.021,0.21,0.064c0.068,0.045,0.113,0.104,0.137,0.172l0.202-0.11v-0.39
			h-1.058v-0.156h1.525V46.624z"/>
	</g>
	<g>
		<path fill="#FFFFFF" d="M38.9,46.624h-0.297v1.131h-0.172v-1.131h-0.121v-0.156h0.59V46.624z"/>
	</g>
	<g>
		<path fill="#FFFFFF" d="M40.252,46.624h-0.297v1.131h-0.172v-0.348c-0.104,0.065-0.215,0.1-0.338,0.1
			c-0.203,0-0.381-0.127-0.532-0.379c0.019-0.027,0.042-0.063,0.072-0.104c0.036,0.015,0.069,0.021,0.104,0.021
			c0.064,0,0.117-0.019,0.157-0.056c0.04-0.038,0.06-0.088,0.06-0.151c0-0.041-0.017-0.084-0.047-0.133
			c-0.035-0.054-0.072-0.078-0.108-0.078h-0.32v-0.158h1.421V46.624z M39.783,47.21v-0.586h-0.387
			c0.057,0.061,0.086,0.131,0.086,0.215c0,0.094-0.032,0.175-0.102,0.242c-0.066,0.067-0.146,0.103-0.242,0.103
			c0.025,0.04,0.068,0.075,0.131,0.106c0.063,0.028,0.121,0.045,0.177,0.045C39.566,47.335,39.68,47.294,39.783,47.21z"/>
	</g>
	<g>
		<path fill="#FFFFFF" d="M39.997,46.501l-0.104,0.104l-0.532-0.557l0.116-0.119L39.997,46.501z"/>
	</g>
	<g>
		<path fill="#FFFFFF" d="M40.006,46.05l-0.136,0.137l-0.138-0.137l0.138-0.135L40.006,46.05z"/>
	</g>
	<g>
		<path fill="#FFFFFF" d="M36.516,46.585c-0.117-0.139-0.437-0.396-0.605-0.453c-0.184-0.062-0.313-0.064-0.363-0.01
			c-0.072,0.076-0.021,0.289,0.016,0.377l-0.152,0.064c-0.016-0.039-0.148-0.378,0.016-0.555c0.102-0.107,0.281-0.12,0.537-0.033
			c0.211,0.07,0.549,0.349,0.68,0.502L36.516,46.585z"/>
	</g>
</g>
</svg>
