<?xml version="1.0" encoding="utf-8"?>
<!-- Generator: Adobe Illustrator 16.0.0, SVG Export Plug-In . SVG Version: 6.00 Build 0)  -->
<!DOCTYPE svg PUBLIC "-//W3C//DTD SVG 1.1//EN" "http://www.w3.org/Graphics/SVG/1.1/DTD/svg11.dtd">
<svg version="1.1" id="Layer_1" xmlns="http://www.w3.org/2000/svg" xmlns:xlink="http://www.w3.org/1999/xlink" x="0px" y="0px"
	 width="50px" height="50px" viewBox="0 0 50 50" enable-background="new 0 0 50 50" xml:space="preserve">
<g>
	<path fill="#FFFFFF" d="M33.777,46.134c-0.002-0.008,0.008-0.014,0.03-0.021c0.009-0.002,0.017-0.002,0.022-0.004
		c0.033,0,0.054,0.021,0.063,0.064c0,0.001,0.001,0.002,0.001,0.004l0.274,1.155l0.315-0.955c0.016-0.039,0.043-0.058,0.084-0.058
		c0.024,0,0.043,0.004,0.053,0.013s0.02,0.022,0.027,0.045l0.314,0.953l0.277-1.153c0.011-0.044,0.03-0.066,0.061-0.066
		c0.006,0,0.014,0,0.02,0.002c0.021,0.006,0.032,0.013,0.03,0.021l-0.313,1.257c-0.002,0.018-0.01,0.028-0.021,0.034
		c-0.011,0.007-0.03,0.009-0.057,0.009c-0.04,0-0.065-0.015-0.075-0.043l-0.316-0.97l-0.328,0.968
		c-0.006,0.018-0.014,0.028-0.021,0.035c-0.009,0.006-0.025,0.01-0.049,0.01c-0.027,0-0.047-0.002-0.059-0.009
		c-0.012-0.006-0.018-0.017-0.021-0.034L33.777,46.134z"/>
	<path fill="#FFFFFF" d="M35.666,47.302c-0.09-0.095-0.137-0.213-0.137-0.356c0-0.143,0.047-0.26,0.137-0.354
		c0.092-0.094,0.209-0.142,0.352-0.142s0.258,0.047,0.35,0.143s0.138,0.215,0.138,0.358c0,0.142-0.046,0.259-0.138,0.353
		s-0.207,0.141-0.35,0.141S35.758,47.396,35.666,47.302z M35.736,46.652c-0.074,0.078-0.11,0.176-0.11,0.293s0.036,0.216,0.11,0.295
		c0.074,0.078,0.168,0.119,0.28,0.119s0.205-0.039,0.279-0.117c0.073-0.078,0.11-0.176,0.11-0.292c0-0.118-0.037-0.218-0.11-0.296
		c-0.074-0.079-0.167-0.119-0.279-0.119C35.904,46.534,35.811,46.573,35.736,46.652z"/>
	<path fill="#FFFFFF" d="M36.717,47.383v-0.91c0-0.007,0.01-0.01,0.031-0.01c0.041,0,0.063,0.032,0.063,0.098v0.082
		c0.032-0.059,0.077-0.105,0.134-0.141c0.056-0.035,0.119-0.052,0.186-0.052c0.083,0,0.152,0.021,0.21,0.061
		c0.056,0.041,0.096,0.095,0.119,0.163c0.028-0.068,0.075-0.123,0.136-0.163c0.063-0.04,0.132-0.061,0.211-0.061
		c0.118,0,0.209,0.036,0.271,0.106c0.063,0.071,0.096,0.174,0.096,0.305v0.522c0,0.031-0.014,0.046-0.042,0.046h-0.013
		c-0.027,0-0.041-0.015-0.041-0.046v-0.517c0-0.105-0.023-0.186-0.071-0.243c-0.047-0.056-0.116-0.084-0.207-0.084
		c-0.065,0-0.127,0.021-0.185,0.06c-0.058,0.041-0.099,0.094-0.123,0.162v0.622c0,0.031-0.014,0.046-0.041,0.046h-0.014
		c-0.027,0-0.042-0.015-0.042-0.046v-0.54c0-0.096-0.022-0.171-0.071-0.225c-0.047-0.053-0.114-0.08-0.205-0.08
		c-0.064,0-0.125,0.02-0.183,0.061c-0.057,0.039-0.098,0.092-0.125,0.159v0.624c0,0.031-0.014,0.047-0.042,0.047h-0.013
		C36.73,47.43,36.717,47.415,36.717,47.383z"/>
	<path fill="#FFFFFF" d="M38.38,46.95c0-0.144,0.045-0.261,0.136-0.357c0.092-0.096,0.204-0.144,0.342-0.144
		c0.131,0,0.238,0.043,0.319,0.128s0.122,0.198,0.122,0.338v0.01c0,0.013-0.003,0.022-0.01,0.027
		c-0.006,0.005-0.016,0.008-0.032,0.008h-0.779c0.002,0.117,0.04,0.212,0.113,0.287c0.071,0.073,0.166,0.112,0.28,0.112
		c0.162,0,0.275-0.064,0.343-0.193c0.002-0.001,0.008,0,0.016,0.002c0.009,0.003,0.017,0.009,0.025,0.02s0.013,0.021,0.013,0.035
		c0,0.028-0.021,0.063-0.063,0.104c-0.078,0.08-0.19,0.118-0.336,0.118s-0.264-0.045-0.354-0.139
		C38.426,47.214,38.38,47.094,38.38,46.95z M38.482,46.877h0.711c-0.004-0.104-0.037-0.186-0.098-0.249
		c-0.063-0.063-0.141-0.094-0.238-0.094s-0.182,0.032-0.25,0.095C38.539,46.693,38.498,46.775,38.482,46.877z"/>
	<path fill="#FFFFFF" d="M39.504,47.383v-0.91c0-0.007,0.01-0.01,0.031-0.01c0.041,0,0.063,0.032,0.063,0.098v0.088
		c0.032-0.06,0.079-0.107,0.138-0.145c0.061-0.037,0.129-0.055,0.207-0.055c0.123,0,0.217,0.037,0.284,0.113
		c0.066,0.076,0.099,0.181,0.099,0.313v0.508c0,0.031-0.014,0.047-0.041,0.047h-0.012c-0.029,0-0.043-0.016-0.043-0.047v-0.502
		c0-0.105-0.025-0.189-0.076-0.25s-0.121-0.09-0.215-0.09c-0.078,0-0.146,0.02-0.205,0.061c-0.06,0.039-0.104,0.094-0.133,0.162
		v0.621c0,0.031-0.014,0.047-0.042,0.047h-0.013C39.517,47.43,39.504,47.415,39.504,47.383z"/>
</g>
<g>
	<path fill="#3FC2CD" d="M13.277,27.598c-0.033-0.438-0.063-0.83-0.092-1.222c4.947-0.368,8.579-4.565,8.436-9.373
		c-0.132-4.397-3.483-8.271-7.815-8.977C9.363,7.302,5.192,9.731,3.673,13.9c-1.566,4.308,0.447,9.907,5.531,11.877
		c-0.142,0.367-0.283,0.734-0.442,1.154c-3.714-1.621-6.095-4.324-6.697-8.314c-0.647-4.279,0.81-7.866,4.468-10.221
		C10.923,5.568,15.24,6.2,19.289,9.271c1.793-1.792,3.602-3.601,5.428-5.428h-7.692V2.6h9.904v9.888h-1.223V4.817
		c-1.833,1.832-3.646,3.645-5.444,5.443c2.919,3.791,3.578,7.883,1.209,12.186C19.727,25.609,16.882,27.225,13.277,27.598"/>
</g>
<g>
	<path fill="#FFFFFF" d="M10.612,4.024V2.817c0-0.02,0.006-0.035,0.02-0.047s0.029-0.018,0.051-0.018h0.025
		c0.023,0,0.042,0.006,0.053,0.016c0.012,0.012,0.021,0.031,0.034,0.059l0.401,0.791l0.401-0.791
		c0.013-0.026,0.022-0.047,0.033-0.059c0.012-0.01,0.028-0.016,0.053-0.016h0.021c0.021,0,0.039,0.006,0.053,0.018
		s0.02,0.027,0.02,0.047v1.207c0,0.029-0.014,0.045-0.041,0.045h-0.013c-0.028,0-0.043-0.016-0.043-0.045V2.868l-0.397,0.779
		c-0.019,0.043-0.047,0.063-0.088,0.063c-0.041,0.002-0.068-0.021-0.086-0.063l-0.399-0.779v1.156c0,0.029-0.015,0.045-0.041,0.045
		h-0.017C10.625,4.069,10.612,4.054,10.612,4.024z"/>
	<path fill="#FFFFFF" d="M12.011,3.591c0-0.143,0.045-0.262,0.135-0.357c0.092-0.096,0.204-0.145,0.344-0.145
		c0.131,0,0.236,0.043,0.317,0.129s0.122,0.197,0.122,0.338v0.01c0,0.014-0.003,0.021-0.01,0.027
		c-0.006,0.004-0.018,0.008-0.032,0.008h-0.778c0.002,0.115,0.039,0.213,0.111,0.287s0.166,0.111,0.28,0.111
		c0.161,0,0.274-0.064,0.342-0.193c0.003-0.002,0.008,0,0.017,0.002c0.008,0.002,0.018,0.01,0.025,0.02
		c0.008,0.011,0.014,0.021,0.014,0.035c0,0.027-0.021,0.063-0.063,0.104c-0.079,0.078-0.191,0.119-0.337,0.119
		c-0.146-0.002-0.263-0.048-0.353-0.142C12.056,3.853,12.011,3.733,12.011,3.591z M12.112,3.517h0.711
		c-0.004-0.102-0.035-0.186-0.099-0.248c-0.062-0.063-0.141-0.094-0.237-0.094c-0.099,0-0.183,0.031-0.25,0.096
		C12.17,3.333,12.128,3.415,12.112,3.517z"/>
	<path fill="#FFFFFF" d="M13.133,4.024V3.112c0-0.006,0.011-0.01,0.032-0.01c0.041,0,0.062,0.033,0.063,0.098v0.088
		c0.032-0.061,0.078-0.106,0.139-0.145c0.061-0.035,0.129-0.055,0.205-0.055c0.123,0,0.22,0.039,0.285,0.115
		c0.065,0.074,0.1,0.18,0.1,0.311v0.51c0,0.029-0.016,0.045-0.043,0.045h-0.012c-0.028,0-0.043-0.016-0.043-0.045V3.521
		c0-0.104-0.024-0.189-0.076-0.25c-0.051-0.061-0.121-0.09-0.215-0.09c-0.078,0-0.146,0.02-0.205,0.059
		c-0.059,0.041-0.104,0.095-0.133,0.162v0.623c0,0.029-0.014,0.045-0.041,0.045h-0.014C13.147,4.069,13.133,4.054,13.133,4.024z"/>
</g>
<g>
	<path fill="#C9148D" d="M26.806,26.801c0.606,5.797,5.922,10.182,11.866,9.297c2.438-0.363,4.484-1.479,6.139-3.298
		c1.184-1.3,1.986-2.809,2.404-4.544c-0.42-0.104-0.791-0.191-1.196-0.291c-0.417,1.579-1.155,2.961-2.265,4.139
		c-1.121,1.188-2.461,2.022-4.024,2.492c-1.554,0.467-3.12,0.494-4.694,0.117c-4.261-1.018-7.203-4.979-7-9.55
		c0.199-4.487,3.584-8.109,7.904-8.716c4.087-0.574,8.902,1.965,10.16,7.169c0.383-0.085,0.766-0.168,1.146-0.252v-0.001
		c-0.695-3.775-4.315-8.21-10.137-8.232c-0.182,0-0.361,0.003-0.541,0.012h-0.001c-5.555,0.274-9.886,5.05-9.829,10.378
		L26.806,26.801z"/>
</g>
<g>
	<path fill="#C9148D" d="M36.397,36.133v1.635h-6.267v1.241h6.289v6.357h1.248v-6.364h6.305v-1.255h-6.294v-1.619
		c0.041-0.003,0.082-0.008,0.122-0.011h-1.647C36.234,36.122,36.315,36.13,36.397,36.133"/>
</g>
<g>
	<path fill="#FFFFFF" d="M31.356,27.373c0-0.916,0.498-1.539,1.492-1.871c-0.867-0.287-1.301-0.85-1.301-1.689
		c0-0.624,0.25-1.128,0.748-1.513c0.5-0.385,1.162-0.578,1.99-0.578c0.836,0,1.498,0.188,1.981,0.561
		c0.483,0.374,0.728,0.876,0.728,1.507c0,0.833-0.428,1.399-1.283,1.7c0.986,0.31,1.479,0.937,1.479,1.882
		c0,0.633-0.269,1.146-0.805,1.541c-0.537,0.394-1.241,0.59-2.113,0.59c-0.905,0-1.618-0.193-2.138-0.58
		C31.616,28.537,31.356,28.021,31.356,27.373z M32.503,27.275c0,0.385,0.16,0.699,0.477,0.943c0.316,0.246,0.752,0.367,1.307,0.367
		c0.574,0,1.01-0.115,1.311-0.348c0.3-0.23,0.449-0.553,0.449-0.963c0-0.398-0.158-0.72-0.476-0.963s-0.749-0.364-1.296-0.364
		c-0.555,0-0.988,0.119-1.302,0.356C32.661,26.541,32.503,26.865,32.503,27.275z M32.695,23.88c0,0.36,0.142,0.649,0.425,0.869
		c0.282,0.22,0.672,0.329,1.166,0.329c0.493,0,0.877-0.105,1.151-0.315c0.274-0.21,0.411-0.503,0.411-0.88s-0.139-0.679-0.417-0.906
		c-0.277-0.227-0.663-0.34-1.157-0.34c-0.509,0-0.9,0.11-1.172,0.329C32.831,23.186,32.695,23.49,32.695,23.88z"/>
	<path fill="#FFFFFF" d="M37.966,28.026c0-0.125,0.043-0.239,0.133-0.342c0.088-0.104,0.18-0.177,0.273-0.218
		s0.148-0.051,0.164-0.028c0.457,0.744,1.155,1.114,2.101,1.114c0.547,0,0.983-0.133,1.31-0.401c0.327-0.269,0.49-0.629,0.49-1.084
		S42.288,26.256,41.989,26c-0.298-0.256-0.713-0.385-1.244-0.385c-0.709,0-1.291,0.174-1.748,0.52
		c-0.482-0.029-0.727-0.276-0.729-0.739v-2.848c0-0.2,0.054-0.361,0.164-0.486s0.26-0.187,0.452-0.187h3.763
		c0.369,0,0.554,0.16,0.554,0.48v0.056c0,0.313-0.185,0.469-0.554,0.469h-3.327v2.15c0.473-0.221,0.985-0.331,1.54-0.331
		c0.81,0,1.458,0.213,1.947,0.64c0.489,0.427,0.733,0.998,0.733,1.712c0,0.75-0.26,1.349-0.779,1.793
		c-0.52,0.445-1.227,0.668-2.123,0.668c-0.764,0-1.4-0.161-1.908-0.483C38.22,28.709,37.966,28.373,37.966,28.026z"/>
</g>
<g>
	<path fill="#FFFFFF" d="M7.109,14.586c0-0.117,0.024-0.227,0.074-0.326c0.049-0.1,0.1-0.172,0.15-0.215
		c0.052-0.043,0.084-0.062,0.099-0.053c0.187,0.191,0.408,0.287,0.664,0.287c0.241,0,0.446-0.089,0.614-0.269
		c0.169-0.181,0.268-0.406,0.297-0.681h0.432c0.367,0,0.551,0.182,0.551,0.543v6.514c0,0.362-0.174,0.543-0.523,0.543H9.313
		c-0.342,0-0.513-0.181-0.513-0.541V15.04c-0.206,0.193-0.463,0.291-0.771,0.291c-0.27,0-0.49-0.068-0.662-0.205
		C7.195,14.988,7.109,14.808,7.109,14.586z"/>
	<path fill="#FFFFFF" d="M11.396,19.538c0-0.125,0.044-0.238,0.134-0.342c0.088-0.104,0.18-0.178,0.273-0.219
		s0.148-0.051,0.164-0.027c0.455,0.742,1.154,1.115,2.1,1.115c0.547,0,0.983-0.135,1.312-0.402c0.325-0.268,0.489-0.629,0.489-1.084
		s-0.149-0.811-0.447-1.065c-0.299-0.259-0.713-0.386-1.245-0.386c-0.708,0-1.291,0.172-1.747,0.521
		c-0.482-0.03-0.727-0.276-0.73-0.741V14.06c0-0.2,0.056-0.36,0.164-0.485c0.109-0.125,0.26-0.188,0.452-0.188h3.763
		c0.369,0,0.555,0.16,0.555,0.48v0.055c0,0.313-0.186,0.47-0.555,0.47h-3.328v2.15c0.473-0.222,0.986-0.332,1.541-0.332
		c0.809,0,1.457,0.213,1.947,0.641c0.488,0.427,0.732,0.999,0.732,1.712c0,0.752-0.26,1.351-0.779,1.795
		c-0.519,0.442-1.227,0.666-2.121,0.666c-0.765,0-1.4-0.16-1.908-0.481C11.65,20.22,11.396,19.886,11.396,19.538z"/>
</g>
<g>
	<path fill="#FFFFFF" d="M10.139,26.492v-0.029c0-0.139,0.048-0.256,0.144-0.352c0.096-0.094,0.215-0.142,0.358-0.142
		s0.267,0.046,0.371,0.14c0.104,0.092,0.155,0.209,0.155,0.348v0.027c0,0.141-0.053,0.256-0.158,0.352
		c-0.104,0.094-0.229,0.141-0.372,0.141s-0.263-0.047-0.357-0.139C10.187,26.746,10.139,26.631,10.139,26.492z M10.291,27.992
		c0-0.049,0.032-0.105,0.096-0.17l1.658-1.86c0.004-0.004,0.02-0.003,0.043,0.004c0.024,0.007,0.049,0.021,0.072,0.04
		c0.024,0.02,0.036,0.045,0.036,0.075c0,0.047-0.03,0.106-0.092,0.174l-1.662,1.854c-0.004,0.007-0.019,0.007-0.044-0.002
		c-0.025-0.008-0.049-0.021-0.072-0.043C10.303,28.047,10.291,28.021,10.291,27.992z M10.384,26.5c0,0.078,0.023,0.145,0.072,0.195
		c0.047,0.053,0.109,0.078,0.185,0.078s0.137-0.025,0.185-0.076c0.047-0.051,0.07-0.117,0.07-0.197v-0.047
		c0-0.082-0.023-0.148-0.072-0.201c-0.048-0.053-0.109-0.08-0.185-0.08c-0.076,0-0.138,0.027-0.185,0.078s-0.07,0.119-0.07,0.203
		V26.5z M11.337,27.617v-0.029c0-0.139,0.053-0.256,0.158-0.35c0.104-0.096,0.229-0.144,0.371-0.144s0.262,0.046,0.356,0.14
		c0.094,0.092,0.141,0.207,0.141,0.348v0.027c0,0.141-0.047,0.256-0.143,0.352c-0.095,0.094-0.214,0.141-0.358,0.141
		c-0.144,0-0.267-0.047-0.371-0.139C11.388,27.871,11.337,27.756,11.337,27.617z M11.611,27.625c0,0.078,0.023,0.145,0.072,0.195
		c0.048,0.053,0.109,0.078,0.184,0.078c0.072,0,0.133-0.025,0.182-0.076c0.048-0.051,0.072-0.117,0.072-0.197v-0.049
		c0-0.082-0.024-0.148-0.072-0.201c-0.049-0.051-0.109-0.078-0.185-0.078s-0.135,0.027-0.182,0.078
		c-0.048,0.051-0.07,0.119-0.07,0.201L11.611,27.625L11.611,27.625z"/>
</g>
<g>
	<path fill="#FFFFFF" d="M45.858,25.335v-0.028c0-0.139,0.048-0.256,0.144-0.351c0.097-0.095,0.215-0.142,0.358-0.142
		s0.269,0.045,0.371,0.139c0.104,0.093,0.156,0.208,0.156,0.348v0.028c0,0.139-0.054,0.256-0.157,0.35
		c-0.105,0.095-0.229,0.142-0.373,0.142S46.095,25.773,46,25.682S45.858,25.475,45.858,25.335z M46.01,26.838
		c0-0.051,0.031-0.107,0.096-0.172l1.659-1.859c0.004-0.005,0.019-0.004,0.042,0.004c0.023,0.006,0.049,0.02,0.072,0.039
		c0.023,0.021,0.037,0.045,0.037,0.075c0,0.048-0.031,0.104-0.093,0.175l-1.661,1.854c-0.006,0.006-0.021,0.006-0.045-0.002
		c-0.025-0.009-0.05-0.021-0.072-0.043C46.022,26.891,46.01,26.865,46.01,26.838z M46.104,25.343c0,0.079,0.023,0.146,0.07,0.196
		c0.05,0.052,0.111,0.078,0.187,0.078c0.076,0,0.138-0.025,0.185-0.076s0.069-0.117,0.069-0.198v-0.047
		c0-0.082-0.022-0.147-0.071-0.201c-0.049-0.053-0.109-0.079-0.186-0.079s-0.137,0.026-0.184,0.078
		c-0.047,0.051-0.07,0.119-0.07,0.202V25.343z M47.058,26.461v-0.029c0-0.139,0.052-0.256,0.155-0.351
		c0.104-0.095,0.229-0.142,0.373-0.142c0.143,0,0.263,0.045,0.355,0.138c0.094,0.093,0.143,0.208,0.143,0.349v0.029
		c0,0.139-0.049,0.254-0.144,0.35c-0.096,0.094-0.215,0.141-0.358,0.141c-0.143,0-0.267-0.047-0.369-0.139
		C47.109,26.715,47.058,26.6,47.058,26.461z M47.33,26.469c0,0.078,0.024,0.145,0.072,0.195c0.049,0.053,0.109,0.078,0.184,0.078
		s0.134-0.025,0.182-0.076s0.072-0.117,0.072-0.197V26.42c0-0.082-0.024-0.148-0.072-0.199c-0.048-0.053-0.109-0.078-0.184-0.078
		c-0.076,0-0.137,0.025-0.184,0.076c-0.047,0.053-0.07,0.119-0.07,0.201V26.469z"/>
</g>
</svg>
